<?xml version="1.0" encoding="utf-8"?>
<!-- Generator: Adobe Illustrator 16.0.0, SVG Export Plug-In . SVG Version: 6.00 Build 0)  -->
<!DOCTYPE svg PUBLIC "-//W3C//DTD SVG 1.1//EN" "http://www.w3.org/Graphics/SVG/1.1/DTD/svg11.dtd">
<svg version="1.1" id="Layer_1" xmlns="http://www.w3.org/2000/svg" xmlns:xlink="http://www.w3.org/1999/xlink" x="0px" y="0px"
	 width="250px" height="250px" viewBox="0 0 250 250" enable-background="new 0 0 250 250" xml:space="preserve">
<g>
	<g>
		<path fill-rule="evenodd" clip-rule="evenodd" fill="#FFFFFF" d="M174,251.36c-13.334,0-26.666,0-40,0
			c-1.844-2.107-1.387-4.692-1.39-7.137c-0.034-26.867-0.012-53.734-0.033-80.601c-0.001-2.143,0.279-4.319-0.479-6.396
			c-1.259-1.896-3.238-1.431-5.006-1.449c-6.827-0.072-13.657,0.09-20.482-0.078c-4.855-0.118-5.883-1.116-5.95-5.969
			c-0.134-9.658-0.03-19.318-0.044-28.977c-0.007-3.986,1.918-5.765,5.773-5.848c6.994-0.151,13.989,0.018,20.982-0.092
			c5.526-0.086,6.027-0.56,6.081-5.995c0.076-7.66,0.132-15.323-0.005-22.981c-0.202-11.423,3.314-21.606,9.803-30.873
			c1.953-2.259,4.18-4.258,6.311-6.35c7.236-5.626,15.56-8.64,24.512-10.144c1.06-0.267,2.137-0.386,3.227-0.436
			c0.569-0.041,1.134-0.05,1.702-0.051c4.946,0.002,9.89-0.006,14.833-0.02c2.924,0.088,5.861-0.157,8.771,0.339
			c2.526,0.979,5.235,0.491,7.83,0.962c0.933,0.244,1.753,0.651,2.248,1.536c1.492,10.208,0.561,20.466,0.537,30.702
			c-0.009,3.498-2.681,4.133-5.573,4.223c-6.453,0.2-12.916-0.275-19.355,0.293c-0.795,0.3-1.626,0.477-2.458,0.611
			c-7.608,1.767-10.183,5.229-10.452,14.114c0.023,6.334,0.168,12.664-0.039,18.982c-0.127,3.896,1.346,5.292,5.232,5.296
			c9.479,0.01,18.966-0.494,28.439,0.289c0.872,0.258,1.607,0.724,2.179,1.436c0.675,0.979,0.808,2.075,0.675,3.223
			c-0.463,1.74-0.623,3.523-0.612,5.325c-0.028,1.001-0.159,1.989-0.392,2.963c-0.563,1.63-0.59,3.33-0.619,5.029
			c-0.027,0.98-0.156,1.948-0.391,2.9c-0.461,1.391-0.598,2.83-0.619,4.287c-0.037,1.004-0.17,1.992-0.4,2.971
			c-0.613,1.746-0.484,3.57-0.555,5.377c-0.053,1.14-0.215,2.255-0.625,3.327c-1.054,3.054-3.506,3.581-6.318,3.588
			c-6.908,0.018-13.814-0.036-20.721,0.034c-1.738,0.019-3.715-0.463-4.822,1.578c-0.635,2.135-0.369,4.314-0.371,6.467
			c-0.02,26.793,0.002,53.586-0.032,80.379C175.387,246.65,175.85,249.244,174,251.36z"/>
		<path fill-rule="evenodd" clip-rule="evenodd" fill="#FEFEFE" d="M1,11.36C1,7.693-0.431,2.596,1.402,0.762
			C3.236-1.071,8.333,0.36,12,0.36c78,0,156,0.042,234-0.115c4.232-0.008,5.773,0.863,5.056,5.124C250.729,7.314,251,9.36,251,11.36
			c-0.639,0.3-1.221,0.214-1.748-0.251c-4.283-6.497-10.334-8.34-17.996-8.318C161.273,2.994,91.291,2.975,21.308,2.818
			C13.601,2.8,7.139,4.313,2.756,11.123C2.223,11.585,1.636,11.662,1,11.36z"/>
		<path fill-rule="evenodd" clip-rule="evenodd" fill="#455E9C" d="M1,11.36c0.326-0.014,0.651-0.029,0.977-0.043
			c1.87,1.87,1.614,4.3,1.615,6.595c0.04,72.33,0.04,144.659,0.01,216.989c0,1.994,0.052,4.016-0.928,5.865
			C2.279,241.422,1.72,241.62,1,241.36C1,164.694,1,88.026,1,11.36z"/>
		<path fill-rule="evenodd" clip-rule="evenodd" fill="#425D9B" d="M250.079,11.194c0.296,0.117,0.603,0.172,0.921,0.166
			c0,76.667,0,153.334,0,230c-0.721,0.26-1.273,0.059-1.665-0.6c-1.188-2.334-0.941-4.869-0.942-7.348
			c-0.021-71.389-0.023-142.777,0.016-214.165C248.41,16.491,247.819,13.521,250.079,11.194z"/>
		<path fill-rule="evenodd" clip-rule="evenodd" fill="#465F9D" d="M133,251.36c-40.666,0-81.333,0-122,0
			c-0.287-0.718-0.094-1.267,0.577-1.65c2.331-1.194,4.862-0.936,7.336-0.938c35.392-0.025,70.783-0.023,106.175,0
			c2.475,0.001,5.006-0.258,7.344,0.925C133.097,250.088,133.285,250.643,133,251.36z"/>
		<path fill-rule="evenodd" clip-rule="evenodd" fill="#305093" d="M133,251.36c0.01-0.332,0.01-0.666-0.002-0.998
			c-1.195-1.314-1.527-2.941-1.525-4.623c0.025-29.377-0.404-58.755,0.202-88.133c0.142-0.651,0.387-1.262,0.72-1.838
			c0.438-0.629,0.998-0.768,1.68-0.414c0.117,2.805,0.334,5.609,0.336,8.415c0.025,27.392,0.023,54.784-0.003,82.177
			c-0.001,1.805-0.265,3.609-0.407,5.414C133.666,251.36,133.334,251.36,133,251.36z"/>
		<path fill-rule="evenodd" clip-rule="evenodd" fill="#315294" d="M174,251.36c0.03-31.996,0.061-63.993,0.092-95.99
			c0.691-0.271,1.218-0.082,1.584,0.566c0.303,0.576,0.512,1.184,0.645,1.82c0.586,23.369,0.188,46.743,0.221,70.115
			c0.01,7.273,0.661,14.578-0.501,21.832c-0.263,0.605-0.61,1.156-1.04,1.656C174.666,251.36,174.334,251.36,174,251.36z"/>
		<path fill-rule="evenodd" clip-rule="evenodd" fill="#47609D" d="M175,251.36c-0.008-0.333-0.008-0.666,0.002-0.998
			c1.615-1.466,3.629-1.563,5.635-1.568c18.311-0.053,36.623-0.056,54.936,0.002c1.664,0.006,3.338,0.074,4.859,0.908
			c0.668,0.387,0.855,0.94,0.568,1.656C219,251.36,197,251.36,175,251.36z"/>
		<path fill-rule="evenodd" clip-rule="evenodd" fill="#F2F2F4" d="M10.887,250.415c0.195,0.297,0.233,0.611,0.113,0.945
			c-3.333,0-7.967,1.301-9.634-0.365C-0.301,249.327,1,244.694,1,241.36c0.323,0.021,0.645,0.044,0.968,0.066
			C4.584,244.776,7.582,247.749,10.887,250.415z"/>
		<path fill-rule="evenodd" clip-rule="evenodd" fill="#F1F1F3" d="M241,251.36c-0.062-0.326-0.012-0.635,0.15-0.926
			c3.258-2.686,6.229-5.656,8.93-8.9c0.297-0.109,0.604-0.167,0.92-0.174c0,3.334,0,6.666,0,10
			C247.666,251.36,244.334,251.36,241,251.36z"/>
		<path fill-rule="evenodd" clip-rule="evenodd" fill="#3C5A99" d="M250.08,241.534c-1.174,4.775-4.151,7.741-8.93,8.9
			c-22.049-0.023-44.099-0.049-66.148-0.072c0.002-31.331,0.005-62.662,0.008-93.992c10.197-1.183,20.436-0.045,28.945-0.518
			c-8.523-0.367-18.763,0.561-28.977-0.43c-0.295-0.018-0.592-0.035-0.887-0.053c2.12-1.991,4.689-0.764,7.014-0.828
			c6.977-0.193,13.969-0.244,20.941,0.016c2.838,0.105,4.311-0.758,4.827-3.444c0.688,0.655,0.854,1.347,0.582,1.665
			c-0.062-1.166,0.427-2.762-0.336-4.385c-0.153-1.807-0.118-3.584,0.782-5.231c0.598,0.622,0.828,1.286,0.545,1.673
			c-0.016-1.23,0.402-2.833-0.307-4.437c-0.149-1.516-0.178-3.013,0.68-4.373c0.687,0.402,0.64,1.069,0.621,1.726
			c-0.539-0.391-0.488,0.926-0.513,1.131c0.78-2.402,0.841-3.945,0.157-5.497c-0.129-1.821-0.177-3.63,0.77-5.294
			c0.519,0.432,0.881,0.88,0.153,1.444c0.409-0.194,0.542-0.54,0.503-0.96c-0.1-1.066,0.293-2.194-0.402-3.184
			c-0.141-1.813-0.153-3.608,0.773-5.265c0.757,0.613,0.548,1.342,0.549,1.619c-0.063-1.16,0.57-2.792-0.428-4.382
			c-0.397-0.292-0.795-0.585-1.193-0.877c-4.834-1.468-9.779-0.406-14.668-0.594c-5.476-0.209-10.973-0.205-16.447,0.012
			c-3.191,0.126-4.307-0.758-4.275-4.156c0.07-7.448,0.599-14.92-0.32-22.359c0.238-8.295,3.234-12.121,10.921-13.946
			c8.493,1.12,17.071-0.146,25.579,0.61c-7.942-0.766-15.991,0.646-23.901-0.835c7.073-1.631,14.247-0.563,21.368-0.661
			c3.217-0.044,4.295-0.843,4.191-4.163c-0.311-9.979-0.301-19.968-0.415-29.953c-3.06-2.25-6.7-1.106-10.013-1.446
			c-7.919-0.813-15.914-0.917-23.883-0.532c-1.156,0.423-2.39,0.301-3.59,0.446c-0.66,0.08-0.928,0.39-0.291,0.193
			c0.021-0.006,0.125,0.256,0.19,0.394c-8.566,1.86-16.75,4.634-23.852,9.992c-2.538,0.975-4.291,2.738-5.276,5.269
			c-7.567,10.285-10.682,21.916-10.552,34.563c0.075,7.316-0.217,14.645,0.1,21.948c0.181,4.178-0.663,5.9-5.362,5.615
			c-7.621-0.463-15.297,0.026-22.94-0.195c-3.345-0.097-4.661,0.673-4.567,4.333c0.252,9.806,0.232,19.625,0.006,29.433
			c-0.078,3.384,1.075,4.166,4.234,4.084c7.812-0.204,15.633-0.126,23.447-0.017c1.516,0.021,3.33-0.901,4.58,0.832
			c-0.347,0.023-0.693,0.048-1.041,0.072c-10.122,0.965-20.259,0.116-29.166,0.416c7.094,0.09,15.412-0.025,23.729,0.059
			c1.796,0.018,3.665-0.477,5.391,0.469c0.003,31.331,0.007,62.662,0.011,93.992c-40.704,0.018-81.408,0.035-122.111,0.053
			c-4.801-1.182-7.724-4.229-8.919-8.988C1.971,164.723,1.974,88.02,1.977,11.317c2.29-6.466,6.637-9.778,13.329-9.894
			c6.162-0.106,12.326-0.024,18.489-0.024c67.128,0,134.256-0.004,201.384,0.004c8.117,0.001,12.457,2.885,14.9,9.792
			C250.08,87.974,250.08,164.754,250.08,241.534z"/>
		<path fill-rule="evenodd" clip-rule="evenodd" fill="#305193" d="M174.1,89.39c1.979,6.484,0.854,13.138,0.748,19.679
			c-0.078,4.93,1.054,6.678,6.3,6.423c9.45-0.46,18.94-0.116,28.413-0.097c0.124,0,0.35,0.149,0.352,0.234
			c0.01,0.285-0.061,0.571-0.102,0.857c-10.94,0.073-21.881,0.101-32.82,0.256c-2.249,0.032-3.271-0.464-3.203-2.994
			C174.009,105.632,174.012,97.51,174.1,89.39z"/>
		<path fill-rule="evenodd" clip-rule="evenodd" fill="#3A5898" d="M177,38.364c5.09-2.244,10.495-1.163,15.624-0.794
			c5.281,0.38,10.55,0.697,15.843,0.825c1.408,0.034,3.227-0.23,3.376,2.048c-0.626-0.077-1.251-0.154-1.877-0.231
			c-2.405-0.924-5.015,0.176-7.421-0.748c-2.857-0.076-5.715-0.152-8.573-0.228c-5.315-0.65-10.632-0.639-15.948-0.004
			c-0.343,0.01-0.687,0.021-1.029,0.032c-0.347-0.202-0.461-0.402-0.344-0.602C176.766,38.463,176.882,38.364,177,38.364z"/>
		<path fill-rule="evenodd" clip-rule="evenodd" fill="#3C5A99" d="M186.698,75.218c8.422,0,16.844,0,25.266,0
			c-8.987,0.545-17.995,2.336-26.943,0.226C185.58,75.369,186.139,75.293,186.698,75.218z"/>
		<path fill-rule="evenodd" clip-rule="evenodd" fill="#3C5A99" d="M178.023,39.231c5.316-1.395,10.633-1.398,15.948,0.004
			C188.656,39.234,183.34,39.233,178.023,39.231z"/>
		<path fill-rule="evenodd" clip-rule="evenodd" fill="#375697" d="M145.129,54.757c0.27-3.247,2.031-5,5.275-5.269
			C148.646,51.245,146.888,53.001,145.129,54.757z"/>
		<path fill-rule="evenodd" clip-rule="evenodd" fill="#3C5A99" d="M202.545,39.463c2.481,0.176,5.09-0.918,7.421,0.748
			C207.459,40.289,204.949,40.409,202.545,39.463z"/>
		<path fill-rule="evenodd" clip-rule="evenodd" fill="#335295" d="M211.004,117.363c1.653,1.509,0.867,3.25,0.219,4.994
			c-0.113-0.744-0.227-1.487-0.34-2.231C210.924,119.205,210.963,118.284,211.004,117.363z"/>
		<path fill-rule="evenodd" clip-rule="evenodd" fill="#335294" d="M209.086,133.384c1.455,1.464,0.904,3.177,0.688,4.972
			c-1.225-0.518-0.551-1.636-0.953-2.331C208.908,135.145,208.998,134.264,209.086,133.384z"/>
		<path fill-rule="evenodd" clip-rule="evenodd" fill="#325294" d="M208.141,140.398c1.354,1.567,0.945,3.288,0.277,6.213
			c-0.285-1.911-0.4-2.681-0.516-3.448C207.982,142.241,208.061,141.319,208.141,140.398z"/>
		<path fill-rule="evenodd" clip-rule="evenodd" fill="#325294" d="M207.12,148.393c1.545,1.551,0.679,3.307,0.122,5.061
			c-0.123-0.78-0.246-1.561-0.368-2.341C206.956,150.206,207.038,149.299,207.12,148.393z"/>
		<path fill-rule="evenodd" clip-rule="evenodd" fill="#335295" d="M177,38.364c-0.002,0.3-0.004,0.6-0.006,0.899
			c-0.912,0.078-1.825,0.155-2.737,0.233c-0.312-0.092-0.687-0.105-0.921-0.292c-0.49-0.39-0.377-0.773,0.248-0.805
			C174.72,38.341,175.86,38.371,177,38.364z"/>
		<path fill-rule="evenodd" clip-rule="evenodd" fill="#325294" d="M210.109,125.391c1.058,0.793,0.914,1.948,0.853,3.042
			c-0.017,0.311-0.363,0.604-0.559,0.904c-0.183-0.416-0.365-0.83-0.548-1.246C209.939,127.19,210.024,126.291,210.109,125.391z"/>
		<path fill-rule="evenodd" clip-rule="evenodd" fill="#355596" d="M132.987,156.37c-9.928,0-19.856,0-29.784,0
			c-0.002-0.314-0.006-0.631-0.008-0.945c9.945,0,19.892,0,29.838,0C133.01,155.74,132.994,156.055,132.987,156.37z"/>
		<path fill-rule="evenodd" clip-rule="evenodd" fill="#355596" d="M174.979,155.422c9.93,0,19.857,0,29.787,0
			c0.004,0.316,0.008,0.631,0.011,0.947c-9.923,0-19.845,0-29.767,0C175.004,156.053,174.994,155.739,174.979,155.422z"/>
		<path fill-rule="evenodd" clip-rule="evenodd" fill="#355596" d="M100.262,153.314c0-11.565,0-23.132,0-34.697
			c0.131-0.002,0.262-0.004,0.393-0.006c0,11.565,0,23.132,0,34.697C100.523,153.31,100.393,153.312,100.262,153.314z"/>
		<path fill-rule="evenodd" clip-rule="evenodd" fill="#335395" d="M213.785,42.465c0,10.248,0,20.496,0,30.743
			c-0.155,0-0.312,0.001-0.467,0.001c0-10.248,0-20.496,0-30.744C213.474,42.465,213.63,42.465,213.785,42.465z"/>
	</g>
</g>
</svg>
