<?xml version="1.0" encoding="utf-8"?>
<!-- Generator: Adobe Illustrator 16.0.0, SVG Export Plug-In . SVG Version: 6.00 Build 0)  -->
<!DOCTYPE svg PUBLIC "-//W3C//DTD SVG 1.1//EN" "http://www.w3.org/Graphics/SVG/1.1/DTD/svg11.dtd">
<svg version="1.1" xmlns="http://www.w3.org/2000/svg" xmlns:xlink="http://www.w3.org/1999/xlink" x="0px" y="0px"
	 width="566.295px" height="892.105px" viewBox="0 0 566.295 892.105" enable-background="new 0 0 566.295 892.105"
	 xml:space="preserve">
<g id="Layer_2">
</g>
<g id="Layer_3">
</g>
<g id="Layer_1">
</g>
<g id="Layer_4">
</g>
<g id="Layer_5">
</g>
<g id="Layer_6">
</g>
<g id="Layer_7">
</g>
<g id="Layer_8">
</g>
<g id="Layer_9">
</g>
<g id="Layer_10">
	<circle fill-rule="evenodd" clip-rule="evenodd" fill="#FFFFFF" cx="323.302" cy="437.004" r="201.25"/>
	<path fill="#FFFFFF" d="M363.364,378.176H275.32c-17.045,0-30.862,15.505-30.862,34.633v11.737h-21.912v-11.737
		c0-19.128-11.387-34.633-25.437-34.633H124.54c-14.049,0-25.438,15.505-25.438,34.633v44.523c0,19.128,11.39,34.633,25.438,34.633
		h72.569c14.05,0,25.437-15.504,25.437-34.633V442.84h21.912v14.492c0,19.128,13.817,34.633,30.862,34.633h88.044
		c17.045,0,30.862-15.504,30.862-34.633v-44.523C394.227,393.681,380.409,378.176,363.364,378.176z M208.932,450.084
		c0,12.898-9.119,23.355-20.368,23.355H130.45c-11.249,0-20.368-10.457-20.368-23.355v-30.027c0-12.9,9.119-23.356,20.368-23.356
		h58.113c11.249,0,20.368,10.456,20.368,23.356V450.084z M381.559,451.236c0,13.89-11.146,25.147-24.892,25.147h-71.019
		c-13.746,0-24.892-11.257-24.892-25.147v-32.33c0-13.887,11.146-25.147,24.892-25.147h71.019c13.746,0,24.892,11.26,24.892,25.147
		V451.236z"/>
	<g>
		<polygon fill="#FFFFFF" points="244.777,563.542 168.979,798.948 244.777,884.813 320.581,798.948 		"/>
		<path fill="#FFFFFF" d="M254.382,583.362c-5.303,4.676-13.903,4.676-19.204,0l-17.283-15.237
			c-5.302-4.677-5.302-12.257,0.002-16.934l17.281-15.237c5.301-4.676,13.901-4.676,19.204-0.002l17.281,15.239
			c5.301,4.677,5.301,12.257,0,16.934L254.382,583.362z"/>
		<polygon fill="#FFFFFF" points="294.163,828.874 213.919,849.858 244.777,884.813 		"/>
		<polygon fill="#FFFFFF" points="179.325,810.67 312.457,773.725 299.812,734.454 179.325,766.813 168.979,798.948 		"/>
		<polygon fill="#FFFFFF" points="275.161,657.901 208.644,675.764 193.257,723.549 287.849,697.299 		"/>
		<polygon fill="#FFFFFF" points="256.772,600.792 231.029,606.243 219.178,643.045 267.009,632.579 		"/>
		<g>
			<path fill="#FFFFFF" d="M245.248,585.45c-2.988-7.096-2.964-13.64,0.054-14.627"/>
		</g>
	</g>
	<rect x="104.645" y="397.897" fill="#FFFFFF" width="190.277" height="74.179"/>
</g>
<g id="Layer_11">
	<g>
		<circle fill-rule="evenodd" clip-rule="evenodd" fill="#046888" cx="324.56" cy="442.421" r="180.818"/>
		<path fill-rule="evenodd" clip-rule="evenodd" fill="#2480A5" d="M322.185,499.748c-0.656,1.125-1.173,2.365-1.993,3.356
			c-5.636,6.808-9.238,14.438-9.975,23.351c-0.263,3.193-1.968,5.439-4.815,7.168c-4.599,2.785-8.887,6.082-13.431,8.962
			c-2.146,1.357-3.216,2.971-2.837,5.488c0.569,3.771-0.764,6.596-3.435,9.428c-12.251,13.002-24.249,26.24-36.338,39.393
			c-8.577-3.189-16.538-7.541-24.039-12.76c-1.928-1.781-1.37-4.125-1.269-6.273c0.305-6.514,1.102-12.994,1.763-19.48
			c0.081-0.787,0.276-1.541,0.845-2.127c0.131-0.617,2.354,0.119,0.968-1.525c-0.751-0.895-1.001-2.002-1.065-3.154
			c0.313-5.375,0.453-10.764,1.236-16.095c0.626-4.244-0.068-7.723-4.102-10.152c-2.575-1.551-4.699-3.797-7.188-5.52
			c-2.36-1.629-3.974-3.732-4.932-6.445c-2.715-7.686-5.241-15.453-9.231-22.618c-0.452-0.813-0.649-1.722-0.522-2.673
			c0.014-0.426,0.053-0.847,0.113-1.268c0.976-4.891,0.955-9.787,0.097-14.684c-0.098-0.392-0.152-0.792-0.169-1.197
			c-0.322-2.314,1.624-3.408,2.659-5.015c1.2-1.865,3.142-3.208,3.781-5.446c1.036-3.504,1.773-7.003-0.044-10.49
			c-0.773-1.748-2.337-1.885-3.953-2.038c-6.943-0.656-12.535-4.173-17.752-8.466c-0.161-0.341-0.258-0.704-0.314-1.075
			c0.301-1.724,0.669-3.453-0.139-5.15c-0.215-0.861-0.836-1.382-1.559-1.819c-3.956-3.177-7.777-6.538-12.545-8.505
			c-2.723-2.296-5.531,0.685-8.279-0.121c-4.049-0.194-8.099,0.046-12.135-0.194c-2.261-0.135-4.479-0.456-5.398-3.029
			c0.387-11.928,3.29-23.393,6.994-34.606c15.836-47.926,46.663-82.78,92.089-104.739c0.815-0.395,1.717-0.609,2.579-0.907
			c0.489,1.066,1.205,2.085,1.437,3.205c1.587,7.625,5.659,13.092,12.856,16.481c4.033,1.899,4.039,6.79,5.947,10.28
			c0.52,0.954-0.44,1.329-1.213,1.546c-1.007,0.282-2.01,0.625-3.037,0.761c-4.582,0.607-8.512,2.337-11.337,6.175
			c-0.705,0.958-1.68,1.651-2.889,1.924c-0.252,0.261-0.55,0.441-0.899,0.532c-2.781-0.06-5.574-0.501-8.328,0.254
			c-0.25,0.237-0.428,0.519-0.531,0.848c0.098,1.438,1.213,1.004,2.047,1.145c1.22,0.208,2.6-0.595,3.668,0.571
			c3.484,0.194,5.949,2.278,8.498,4.367c1.795,1.472,2.395,2.574,0.303,4.252c-1.43,1.146-2.643,2.563-3.951,3.858
			c-0.31,0.265-0.665,0.425-1.067,0.479c-2.971-0.187-5.943-0.124-8.916-0.045c-0.408-0.057-0.744-0.245-1.008-0.564
			c-4.976-5.672-4.976-5.672-12.971-1.635c-0.613,1.016-1.696,1.542-2.479,2.384c-0.266,0.219-0.478,0.482-0.642,0.786
			c-0.518,2.762,0.146,5.583-0.422,8.341c-0.038,0.171-0.074,0.341-0.112,0.513c-4.037,1.227-5.458,3.993-4.769,8.035
			c0.438,2.562-0.625,4.48-2.418,6.27c-2.596,2.595-4.704,5.746-7.535,8.015c-4.268,3.421-4.49,7.437-3.262,12.186
			c0.683,2.646,0.792,5.434,1.337,8.122c0.478,2.362-1.255,2.976-2.737,3.673c-1.932,0.909-2.061-1.098-2.68-2.029
			c-2.236-3.359-3.771-7.163-6.482-10.226c-0.168-0.054-0.336-0.108-0.506-0.162c-0.331-0.134-0.674-0.225-1.027-0.273
			c-3.606-0.054-7.212-0.151-10.814,0.057c-0.175,0.048-0.35,0.096-0.524,0.144c-0.175,0.042-0.353,0.083-0.528,0.124
			c-3.306,3.278-7.26,2.737-11.295,1.988c-6.101-1.129-10.016,2.422-9.679,8.6c0.25,4.57,0.859,9.143,0.23,13.721
			c-0.198,1.437,0.594,2.229,1.557,2.924c2.433,1.752,4.911,3.442,7.369,5.158c0.163,0.042,0.325,0.084,0.488,0.126
			c0.162,0.051,0.323,0.102,0.483,0.154c1.193,0.176,2.385,0.174,3.574,0.001c0.16-0.05,0.323-0.101,0.482-0.15
			c0.164-0.042,0.328-0.083,0.491-0.125c2.795-6.538,8.034-4.186,13.272-3.674c-1.137,2.681-2.1,5.097-3.181,7.461
			c-1.154,2.525-0.565,4.056,2.291,4.479c3.116,0.461,6.222,1.044,9.354,1.339c2.058,0.194,2.734,1.104,2.555,3.058
			c-0.268,2.879-0.384,5.771-0.635,8.654c-0.199,2.317,0.65,3.676,3.02,4.281c3.434,0.878,6.838,1.908,10.178,3.088
			c1.311,0.463,2.371,0.248,3.327-0.407c9.706-6.634,20.568-6.102,31.498-5.156c0.612,0.052,1.203,0.372,1.805,0.568
			c-1.97,0.932-4.059,0.113-5.162,0.305c1.105-0.168,3.191,0.611,5.162-0.304c3.241,3.238,6.779,6.239,9.646,9.783
			c2.832,3.502,6.272,5.516,10.548,6.06c6.712,0.855,11.314,4.175,13.564,10.63c2.806,8.05,8.602,12.019,16.883,13.804
			c7.776,1.676,15.272,4.663,22.891,7.074C323.673,488.617,322.665,494.194,322.185,499.748z"/>
		<path fill-rule="evenodd" clip-rule="evenodd" fill="#2480A5" d="M405.228,459.528c-1.201-2.171-2.624-4.249-3.567-6.526
			c-3.519-8.495-8.502-15.929-15.38-22.062c-0.293-0.382-0.444-0.814-0.454-1.295c0.069-8.881,0.09-17.762-0.012-26.642
			c0.008-0.478,0.146-0.915,0.417-1.311c1.49-2.449,3.033-4.868,4.457-7.355c2.509-4.378,5.465-8.247,10.471-10.008
			c0.747-0.262,1.372-0.749,1.551-1.609c-0.124-2.896-1.01-5.838,0.555-8.625c4.331-3.983,9.578-5.395,15.313-5.646
			c3.196-0.139,5.903-1.477,8.355-3.65c2.619-2.323,5.584-4.261,8.396-6.368c6.445-1.167,12.942-0.39,19.412-0.458
			c2.267-0.024,2.656,1.672,2.7,3.504c-1.129,7.221-1.129,7.222,5.991,9.503c4.997,1.602,10.06,3.025,14.966,4.866
			c3.212,1.205,4.67,0.104,5.47-2.861c0.444-1.645,1.013-3.257,1.522-4.884c1.338-4.272,1.338-4.272,5.136-1.668
			c6.04,11.026,9.708,22.937,12.517,35.082c3.411,14.754,5.613,29.733,4.768,44.926c-1.988,35.732-12.759,68.465-34.095,97.462
			c-0.305,0.416-0.731,0.742-1.101,1.113c-4.201-7.392-8.411-14.782-12.591-22.185c-0.441-0.783-0.804-1.611-0.378-2.604
			c3.865-9.033,1.804-18.592,2.547-27.908c0.479-6.005-1.071-11.043-4.881-15.538c-0.241-0.289-0.397-0.617-0.478-0.981
			c0.21-3.825,0.19-7.649,0.024-11.475c-0.045-0.174-0.089-0.347-0.133-0.521c-0.037-0.174-0.075-0.349-0.113-0.525
			c-1.265-2.602-3.699-1.603-5.527-1.438c-3.301,0.301-5.272-0.853-6.82-3.732c-1.13-2.096-2.045-4.494-4.289-5.829
			c-0.149-0.038-0.299-0.076-0.453-0.116c-0.309-0.109-0.62-0.191-0.945-0.242c-1.919-0.079-3.832-0.079-5.745,0.001
			c-0.343,0.049-0.675,0.137-0.995,0.265c-0.164,0.051-0.33,0.102-0.495,0.153c-3.445,2.333-6.893,4.664-10.338,6.995
			c-0.321,0.298-0.701,0.466-1.139,0.505c-4.667-0.233-9.346,0.134-14.011-0.21C405.646,459.598,405.437,459.564,405.228,459.528z"
			/>
		<path fill-rule="evenodd" clip-rule="evenodd" fill="#2480A5" d="M480.66,352.807c-5.052-2.216-8.93-6.276-13.882-8.708
			c-5.162-2.534-9.866-6.154-15.202-8.14c-5.891-2.194-12.271-3.013-18.52-0.569c0.384,5.306-2.958,6.413-7.258,6.44
			c-2.579,3.965-5.181,7.917-7.729,11.901c-2.541,3.978-7.551,4.973-11.533,2.242c-7.181-4.927-9.354-11.486-6.699-19.736
			c0.582-1.818,1.878-1.514,3.135-1.576c4.859-0.238,9.722-0.586,14.584-0.628c2.975-0.026,4.051-1.094,4.335-4.153
			c0.398-4.304-1.044-7.301-4.505-9.657c-1.573-1.071-2.939-2.447-4.068-4.458c3.602,0.193,7.213,0.302,10.808,0.606
			c2.822,0.238,5.06-0.603,7.094-2.6c3.276-3.22,6.734-6.254,10.114-9.368c13.841,11.087,24.821,24.667,34.278,39.549
			C477.433,346.818,478.984,349.852,480.66,352.807z"/>
		<path fill-rule="evenodd" clip-rule="evenodd" fill="#2480A5" d="M426.92,293.085c-0.658,4.537-1.432,9.061-1.931,13.614
			c-0.243,2.23-1.35,2.966-3.348,2.896c-4.594-0.16-9.187-0.372-13.781-0.484c-1.744-0.042-2.625-0.723-1.781-2.388
			c4.103-8.094,0.779-15.487-2-22.961c-0.677-1.826-1.174-3.718-1.755-5.578C411.087,282.223,419.328,287.12,426.92,293.085z"/>
		<path fill-rule="evenodd" clip-rule="evenodd" fill="#2480A5" d="M307.827,263.435c-2.754,4.042-6.563,7.126-9.826,10.706
			c-1.845,2.026-3.063,3.828-1.744,6.569c0.859,1.79,0.254,2.724-1.798,2.557c-0.13-0.011-0.267-0.014-0.394,0.015
			c-5.715,1.262-10.365,0.245-13.798-5.17c-2.011-3.171-4.988-5.731-7.531-8.565C284.168,265.98,295.939,264.372,307.827,263.435z"
			/>
	</g>
	<g>
		<g>
			<path fill="#414042" d="M203.872,537.101c14.809-14.318,37.885-14.318,52.695,0c4.635,4.483,11.714-2.582,7.07-7.07
				c-18.74-18.119-48.097-18.119-66.838,0C192.157,534.521,199.236,541.584,203.872,537.101L203.872,537.101z"/>
		</g>
	</g>
	<path fill="#BCBEC0" d="M361.973,450.61c0,10.771-9.699,19.501-21.663,19.501h-61.805c-11.963,0-21.663-8.73-21.663-19.501v-25.072
		c0-10.77,9.7-19.501,21.663-19.501h61.805c11.964,0,21.663,8.732,21.663,19.501V450.61z"/>
	<path fill="#BCBEC0" d="M211.74,449.718c0,10.002-7.937,18.112-17.727,18.112h-50.574c-9.789,0-17.726-8.109-17.726-18.112v-23.287
		c0-10.003,7.937-18.113,17.726-18.113h50.574c9.79,0,17.727,8.109,17.727,18.113V449.718z"/>
	<polygon fill="#FFFFFF" points="352.273,406.037 330.617,406.037 266.542,470.112 288.198,470.112 	"/>
	<polygon fill="#FFFFFF" points="214.826,406.036 193.169,406.036 129.093,470.111 150.751,470.111 	"/>
	<path fill="#414042" d="M346.139,393.953h-76.622c-14.834,0-26.859,12.024-26.859,26.857v9.103h-19.069v-9.103
		c0-14.833-9.909-26.857-22.137-26.857h-63.155c-12.226,0-22.138,12.024-22.138,26.857v34.528c0,14.833,9.912,26.858,22.138,26.858
		h63.155c12.228,0,22.137-12.024,22.137-26.858v-11.239h19.069v11.239c0,14.833,12.025,26.858,26.859,26.858h76.622
		c14.833,0,26.858-12.024,26.858-26.858V420.81C372.997,405.977,360.972,393.953,346.139,393.953z M211.74,449.718
		c0,10.002-7.937,18.112-17.727,18.112h-50.574c-9.789,0-17.726-8.109-17.726-18.112v-23.287c0-10.003,7.937-18.113,17.726-18.113
		h50.574c9.79,0,17.727,8.109,17.727,18.113V449.718z M361.973,450.61c0,10.771-9.699,19.501-21.663,19.501h-61.805
		c-11.963,0-21.663-8.73-21.663-19.501v-25.072c0-10.77,9.7-19.501,21.663-19.501h61.805c11.964,0,21.663,8.732,21.663,19.501
		V450.61z"/>
	<g>
		<polygon fill="#E94624" points="243.511,597.051 187.555,794.129 243.511,866.014 299.469,794.129 		"/>
		<path fill="#E94624" d="M250.6,613.645c-3.915,3.914-10.263,3.914-14.176,0l-12.759-12.756
			c-3.913-3.916-3.913-10.262,0.002-14.178l12.757-12.756c3.913-3.914,10.261-3.914,14.176-0.002l12.758,12.758
			c3.913,3.916,3.913,10.262,0,14.178L250.6,613.645z"/>
		<polygon fill="#C83127" points="279.967,819.182 220.73,836.75 243.511,866.014 		"/>
		<polygon fill="#C83127" points="195.192,803.944 293.473,773.014 284.138,740.135 195.192,767.227 187.555,794.129 		"/>
		<polygon fill="#C83127" points="265.94,676.047 216.836,691.002 205.478,731.008 275.306,709.032 		"/>
		<polygon fill="#C83127" points="252.365,628.235 233.361,632.801 224.612,663.61 259.922,654.848 		"/>
		<g>
			<g>
				<path fill="#C83127" d="M246.269,614.727c-0.688-1.941-1.27-3.918-1.491-5.973c-0.074-0.693-0.37-3.072,0.383-3.447
					c2.887-1.439,0.353-5.752-2.523-4.318c-5.058,2.52-2.57,11.17-1.188,15.068C242.517,619.073,247.349,617.774,246.269,614.727
					L246.269,614.727z"/>
			</g>
		</g>
	</g>
	<path fill="#E94624" d="M486.188,518.408c0,40.021-108.715,72.403-243.065,72.403l6.462,9.348
		C380.364,600.159,486.188,563.594,486.188,518.408z"/>
	<path fill="#E94624" d="M190.577,556.555c-2.738,11.766,22.957,27.781,57.449,35.809l-5.131,7.939
		C210.126,592.676,186.725,573.108,190.577,556.555z"/>
	<g>
		<path fill="#F0F2F2" d="M240.369,134.027c-0.584-1.578-1.588-2.58-3.012-3.002c-1.425-0.423-2.926-0.342-4.504,0.242
			c-5.48,2.029-8.918,6.576-10.313,13.638c-0.696,5.539-1.408,11.031-2.138,16.473c-1.246,1.2-2.564,2.058-3.957,2.573
			c-4.644,1.72-7.893,0.072-9.75-4.943c-2.682-7.243-1.32-15.612,4.086-25.113c5.404-9.498,11.822-15.623,19.252-18.374
			c5.199-1.925,10.229-1.887,15.09,0.116c4.858,2.002,8.27,5.648,10.229,10.942c2.579,6.964,1.729,14.937-2.551,23.911
			c-1.111,2.418-5.62,9.631-13.527,21.64c-4.924,7.525-6.834,12.773-5.734,15.745c0.412,1.113,1.065,2.167,1.961,3.154
			c0.894,0.99,1.778,1.956,2.657,2.897c-0.136,1.633-0.914,3.164-2.341,4.588c-1.426,1.426-2.974,2.447-4.646,3.066
			c-2.416,0.895-4.563,0.795-6.448-0.305c-1.886-1.097-3.273-2.852-4.168-5.268c-2.407-6.5-1.547-14.158,2.581-22.973
			c4.214-7.155,8.409-14.359,12.589-21.609C240.23,143.636,241.779,137.835,240.369,134.027z M236.861,204.542
			c2.413-0.894,4.646-1.139,6.695-0.737c2.051,0.404,3.506,1.766,4.365,4.086c1.135,3.064,0.437,6.174-2.092,9.327
			c-2.166,2.703-4.921,4.674-8.264,5.911c-2.322,0.86-4.443,1.118-6.366,0.773c-2.49-0.449-4.13-1.743-4.922-3.88
			c-1.1-2.971-0.448-5.983,1.96-9.041C230.644,207.929,233.518,205.78,236.861,204.542z"/>
	</g>
	<g>
		<path fill="#F0F2F2" d="M389.811,190.355c1.76,0.573,3.128,1.432,4.104,2.573c0.975,1.143,1.188,2.56,0.636,4.251
			c-0.729,2.233-2.509,3.675-5.341,4.324c-2.429,0.556-4.861,0.437-7.298-0.357c-1.693-0.553-3.004-1.354-3.933-2.405
			c-1.204-1.365-1.551-2.826-1.043-4.385c0.706-2.165,2.419-3.573,5.14-4.222C384.794,189.488,387.374,189.56,389.811,190.355z
			 M423.268,152.173c0.375-1.149,0.255-2.163-0.359-3.037c-0.613-0.874-1.495-1.499-2.646-1.874
			c-3.995-1.303-7.962-0.274-11.902,3.084c-2.864,2.812-5.717,5.589-8.558,8.331c-1.237,0.121-2.363,0.015-3.379-0.316
			c-3.386-1.104-4.481-3.482-3.29-7.138c1.722-5.28,6.226-9.39,13.514-12.331c7.286-2.941,13.638-3.529,19.054-1.764
			c3.79,1.236,6.608,3.503,8.453,6.801c1.846,3.298,2.14,6.876,0.881,10.734c-1.654,5.076-5.691,9.19-12.11,12.339
			c-1.708,0.867-7.468,2.921-17.285,6.159c-6.135,2.044-9.555,4.149-10.261,6.314c-0.265,0.813-0.367,1.697-0.303,2.653
			c0.062,0.958,0.129,1.896,0.204,2.819c-0.805,0.86-1.929,1.375-3.367,1.541c-1.441,0.168-2.769,0.053-3.988-0.345
			c-1.76-0.574-2.926-1.59-3.497-3.051c-0.574-1.46-0.573-3.068,0.001-4.829c1.545-4.737,5.448-8.671,11.71-11.797
			c5.57-2.152,11.148-4.34,16.742-6.56C418.898,157.528,422.362,154.95,423.268,152.173z"/>
	</g>
	<g>
		<path fill="#F0F2F2" d="M354.106,72.363c-0.163-2.198-1.065-3.823-2.704-4.872c-1.639-1.049-3.561-1.491-5.758-1.328
			c-7.636,0.569-13.611,5.048-17.929,13.434c-2.885,6.722-5.77,13.377-8.66,19.965c-2.005,1.061-3.975,1.662-5.915,1.806
			c-6.472,0.482-9.965-2.77-10.484-9.757c-0.752-10.091,3.995-20.135,14.245-30.137c10.248-9.999,20.545-15.385,30.897-16.156
			c7.245-0.54,13.564,1.331,18.957,5.613c5.393,4.282,8.363,10.111,8.913,17.485c0.723,9.703-3.235,19.432-11.877,29.18
			c-2.276,2.642-10.567,10.09-24.875,22.343c-8.926,7.69-13.233,13.606-12.925,17.746c0.115,1.552,0.555,3.114,1.324,4.682
			c0.767,1.572,1.531,3.106,2.296,4.61c-0.763,2.008-2.299,3.653-4.609,4.929c-2.313,1.279-4.632,2.003-6.961,2.177
			c-3.366,0.251-6.034-0.654-8.009-2.721c-1.978-2.063-3.088-4.776-3.338-8.143c-0.675-9.055,3.183-18.386,11.575-27.987
			c7.897-7.482,15.79-15.031,23.683-22.645C350.448,84.412,354.502,77.67,354.106,72.363z M324.132,159.875
			c3.363-0.25,6.264,0.25,8.699,1.499c2.435,1.252,3.772,3.495,4.014,6.727c0.318,4.269-1.688,7.931-6.013,10.985
			c-3.708,2.618-7.891,4.1-12.548,4.447c-3.235,0.241-6.002-0.202-8.296-1.333c-2.973-1.468-4.567-3.69-4.789-6.668
			c-0.309-4.139,1.603-7.697,5.742-10.673C315.077,161.885,319.475,160.221,324.132,159.875z"/>
	</g>
</g>
</svg>
