<?xml version="1.0" encoding="utf-8"?>
<!-- Generator: Adobe Illustrator 16.0.0, SVG Export Plug-In . SVG Version: 6.00 Build 0)  -->
<!DOCTYPE svg PUBLIC "-//W3C//DTD SVG 1.1//EN" "http://www.w3.org/Graphics/SVG/1.1/DTD/svg11.dtd">
<svg version="1.1" xmlns="http://www.w3.org/2000/svg" xmlns:xlink="http://www.w3.org/1999/xlink" x="0px" y="0px"
	 width="822.637px" height="632.723px" viewBox="0 0 822.637 632.723" enable-background="new 0 0 822.637 632.723"
	 xml:space="preserve">
<g id="Layer_2">
</g>
<g id="Layer_3">
</g>
<g id="Layer_1">
</g>
<g id="Layer_4">
</g>
<g id="Layer_5">
</g>
<g id="Layer_6">
</g>
<g id="Layer_7">
</g>
<g id="Layer_8">
</g>
<g id="Layer_9">
</g>
<g id="Layer_10">
	<circle fill-rule="evenodd" clip-rule="evenodd" fill="#FFFFFF" cx="360.384" cy="372.48" r="246.871"/>
	<path fill="#FFFFFF" d="M227.756,39.174l278.669,134.565l-196.529,42.972L121.597,348.957L110.733,229.43l4.664,51.326
		l-77.143,72.286l71.213-251.145l-2.31,20.163c0-48.825,39.509-88.333,88.333-88.333s88.333,39.509,88.333,88.333"/>
	<circle fill="#FFFFFF" cx="50.583" cy="334.965" r="38.672"/>
</g>
<g id="Layer_11">
	<circle fill="#9ECAD8" cx="50.583" cy="334.965" r="27.515"/>
	<g>
		<circle fill-rule="evenodd" clip-rule="evenodd" fill="#046888" cx="361.384" cy="372.48" r="228.904"/>
		<path fill-rule="evenodd" clip-rule="evenodd" fill="#2480A5" d="M358.378,445.051c-0.832,1.426-1.484,2.996-2.523,4.25
			c-7.136,8.617-11.696,18.277-12.628,29.561c-0.333,4.041-2.49,6.887-6.096,9.074c-5.82,3.527-11.249,7.699-17.003,11.344
			c-2.717,1.721-4.07,3.762-3.59,6.949c0.72,4.773-0.969,8.348-4.349,11.934c-15.509,16.459-30.698,33.219-46.002,49.869
			c-10.858-4.037-20.936-9.547-30.431-16.154c-2.441-2.254-1.734-5.223-1.607-7.939c0.386-8.248,1.395-16.449,2.232-24.66
			c0.103-1,0.35-1.953,1.069-2.695c0.165-0.779,2.979,0.152,1.226-1.93c-0.952-1.131-1.268-2.533-1.35-3.994
			c0.396-6.805,0.574-13.627,1.566-20.373c0.791-5.375-0.088-9.777-5.193-12.852c-3.26-1.965-5.949-4.811-9.1-6.988
			c-2.986-2.063-5.029-4.725-6.243-8.162c-3.437-9.729-6.634-19.559-11.687-28.631c-0.572-1.029-0.82-2.18-0.66-3.383
			c0.018-0.539,0.066-1.072,0.144-1.605c1.235-6.191,1.208-12.389,0.121-18.588c-0.123-0.496-0.192-1.004-0.214-1.516
			c-0.406-2.93,2.057-4.314,3.366-6.348c1.52-2.361,3.978-4.061,4.788-6.895c1.313-4.436,2.245-8.865-0.056-13.279
			c-0.979-2.213-2.958-2.387-5.005-2.58c-8.79-0.83-15.867-5.283-22.473-10.717c-0.203-0.432-0.326-0.891-0.398-1.361
			c0.381-2.182,0.848-4.371-0.176-6.52c-0.271-1.09-1.057-1.75-1.973-2.303c-5.008-4.021-9.845-8.277-15.88-10.768
			c-3.447-2.906-7.003,0.867-10.482-0.152c-5.126-0.246-10.251,0.059-15.362-0.246c-2.861-0.17-5.669-0.576-6.834-3.834
			c0.489-15.1,4.166-29.613,8.855-43.809c20.047-60.671,59.071-104.794,116.578-132.593c1.031-0.499,2.173-0.771,3.264-1.148
			c0.621,1.35,1.525,2.641,1.82,4.058c2.008,9.652,7.164,16.573,16.275,20.864c5.105,2.404,5.113,8.596,7.527,13.014
			c0.659,1.208-0.557,1.682-1.535,1.957c-1.273,0.356-2.543,0.791-3.845,0.964c-5.8,0.769-10.773,2.958-14.351,7.817
			c-0.893,1.212-2.128,2.091-3.658,2.436c-0.318,0.33-0.695,0.559-1.139,0.674c-3.521-0.076-7.057-0.635-10.543,0.321
			c-0.315,0.3-0.541,0.657-0.672,1.073c0.123,1.82,1.535,1.271,2.592,1.45c1.545,0.263,3.291-0.754,4.643,0.722
			c4.412,0.246,7.531,2.884,10.758,5.529c2.273,1.863,3.033,3.259,0.385,5.383c-1.811,1.451-3.346,3.244-5.004,4.885
			c-0.391,0.336-0.84,0.538-1.351,0.606c-3.761-0.237-7.523-0.157-11.286-0.058c-0.518-0.072-0.943-0.311-1.275-0.714
			c-6.3-7.181-6.3-7.181-16.422-2.07c-0.775,1.286-2.146,1.952-3.136,3.019c-0.338,0.277-0.605,0.61-0.813,0.994
			c-0.654,3.497,0.185,7.068-0.535,10.56c-0.047,0.217-0.094,0.432-0.141,0.648c-5.111,1.553-6.911,5.055-6.037,10.172
			c0.555,3.242-0.791,5.672-3.061,7.938c-3.286,3.285-5.955,7.273-9.54,10.146c-5.401,4.33-5.684,9.414-4.129,15.426
			c0.865,3.35,1.003,6.879,1.692,10.281c0.605,2.99-1.588,3.768-3.465,4.65c-2.445,1.15-2.608-1.391-3.393-2.568
			c-2.83-4.252-4.773-9.068-8.206-12.945c-0.212-0.068-0.425-0.137-0.64-0.205c-0.42-0.17-0.854-0.285-1.302-0.346
			c-4.565-0.068-9.129-0.191-13.69,0.072c-0.221,0.061-0.442,0.121-0.663,0.182c-0.223,0.053-0.445,0.105-0.669,0.156
			c-4.185,4.15-9.189,3.465-14.298,2.518c-7.724-1.43-12.681,3.066-12.253,10.887c0.316,5.785,1.088,11.574,0.291,17.369
			c-0.25,1.818,0.752,2.822,1.972,3.701c3.079,2.219,6.216,4.357,9.328,6.529c0.206,0.053,0.411,0.107,0.618,0.16
			c0.205,0.064,0.408,0.129,0.613,0.195c1.509,0.223,3.017,0.221,4.523,0.002c0.203-0.063,0.408-0.127,0.611-0.189
			c0.207-0.053,0.414-0.105,0.621-0.158c3.538-8.277,10.171-5.299,16.802-4.652c-1.438,3.395-2.658,6.453-4.026,9.445
			c-1.461,3.197-0.715,5.135,2.9,5.67c3.945,0.584,7.876,1.322,11.842,1.695c2.605,0.246,3.462,1.398,3.234,3.871
			c-0.338,3.645-0.486,7.307-0.803,10.955c-0.253,2.934,0.822,4.654,3.823,5.42c4.347,1.111,8.655,2.416,12.884,3.91
			c1.658,0.586,3.001,0.313,4.212-0.516c12.285-8.398,26.037-7.725,39.874-6.527c0.775,0.066,1.522,0.471,2.283,0.719
			c-2.493,1.18-5.137,0.143-6.535,0.387c1.4-0.213,4.041,0.773,6.535-0.385c4.105,4.1,8.584,7.898,12.212,12.385
			c3.586,4.434,7.94,6.982,13.354,7.672c8.497,1.082,14.324,5.285,17.172,13.457c3.552,10.191,10.888,15.215,21.371,17.475
			c9.846,2.121,19.335,5.902,28.979,8.955C360.261,430.961,358.985,438.02,358.378,445.051z"/>
		<path fill-rule="evenodd" clip-rule="evenodd" fill="#2480A5" d="M463.504,394.137c-1.521-2.748-3.32-5.379-4.515-8.262
			c-4.454-10.754-10.764-20.164-19.471-27.928c-0.37-0.484-0.563-1.031-0.576-1.641c0.089-11.242,0.114-22.484-0.014-33.727
			c0.01-0.605,0.186-1.158,0.528-1.66c1.886-3.1,3.839-6.162,5.642-9.311c3.176-5.543,6.92-10.439,13.256-12.67
			c0.945-0.332,1.736-0.947,1.964-2.037c-0.158-3.666-1.279-7.391,0.702-10.918c5.482-5.043,12.125-6.83,19.384-7.148
			c4.047-0.176,7.474-1.869,10.578-4.621c3.317-2.941,7.068-5.395,10.63-8.061c8.159-1.479,16.382-0.494,24.574-0.58
			c2.869-0.031,3.363,2.117,3.419,4.436c-1.43,9.141-1.43,9.143,7.585,12.031c6.324,2.027,12.733,3.828,18.944,6.16
			c4.066,1.525,5.911,0.131,6.926-3.623c0.563-2.082,1.281-4.123,1.927-6.184c1.692-5.408,1.692-5.408,6.5-2.111
			c7.647,13.959,12.291,29.037,15.846,44.412c4.318,18.678,7.106,37.641,6.036,56.873c-2.518,45.234-16.151,86.672-43.161,123.381
			c-0.388,0.527-0.927,0.941-1.395,1.41c-5.318-9.359-10.647-18.713-15.938-28.086c-0.56-0.992-1.018-2.039-0.48-3.295
			c4.894-11.436,2.284-23.537,3.225-35.33c0.606-7.602-1.356-13.98-6.179-19.67c-0.305-0.365-0.502-0.781-0.604-1.242
			c0.267-4.842,0.242-9.684,0.031-14.525c-0.057-0.221-0.112-0.439-0.168-0.66c-0.048-0.221-0.096-0.441-0.144-0.664
			c-1.602-3.293-4.683-2.029-6.997-1.82c-4.18,0.381-6.675-1.08-8.635-4.725c-1.428-2.654-2.59-5.689-5.429-7.379
			c-0.19-0.049-0.38-0.096-0.574-0.146c-0.391-0.139-0.785-0.242-1.196-0.307c-2.43-0.1-4.852-0.1-7.273,0.002
			c-0.433,0.063-0.854,0.174-1.261,0.336c-0.208,0.064-0.416,0.129-0.625,0.193c-4.362,2.953-8.725,5.904-13.087,8.855
			c-0.408,0.377-0.889,0.59-1.442,0.639c-5.909-0.295-11.83,0.17-17.737-0.266C464.034,394.225,463.769,394.182,463.504,394.137z"/>
		<path fill-rule="evenodd" clip-rule="evenodd" fill="#2480A5" d="M558.997,259.035c-6.396-2.807-11.305-7.945-17.574-11.023
			c-6.534-3.207-12.488-7.791-19.243-10.305c-7.456-2.777-15.534-3.814-23.446-0.721c0.485,6.717-3.745,8.118-9.188,8.153
			c-3.265,5.02-6.559,10.021-9.783,15.066c-3.217,5.035-9.559,6.295-14.6,2.838c-9.091-6.236-11.842-14.541-8.482-24.984
			c0.74-2.302,2.378-1.917,3.969-1.995c6.153-0.302,12.307-0.742,18.462-0.795c3.767-0.033,5.13-1.385,5.488-5.258
			c0.504-5.449-1.32-9.242-5.702-12.225c-1.992-1.356-3.722-3.099-5.15-5.645c4.561,0.244,9.131,0.383,13.681,0.768
			c3.572,0.301,6.407-0.763,8.98-3.291c4.147-4.076,8.524-7.918,12.804-11.859c17.523,14.037,31.422,31.228,43.396,50.067
			C554.911,251.453,556.876,255.293,558.997,259.035z"/>
		<path fill-rule="evenodd" clip-rule="evenodd" fill="#2480A5" d="M490.968,183.431c-0.836,5.743-1.815,11.47-2.446,17.234
			c-0.309,2.822-1.709,3.754-4.238,3.666c-5.815-0.203-11.629-0.471-17.446-0.613c-2.208-0.054-3.322-0.916-2.255-3.023
			c5.193-10.246,0.985-19.605-2.53-29.067c-0.858-2.311-1.487-4.706-2.223-7.062C470.921,169.68,481.354,175.878,490.968,183.431z"
			/>
		<path fill-rule="evenodd" clip-rule="evenodd" fill="#2480A5" d="M340.202,145.895c-3.486,5.117-8.309,9.021-12.439,13.553
			c-2.336,2.564-3.879,4.846-2.209,8.316c1.09,2.266,0.323,3.448-2.275,3.236c-0.164-0.014-0.338-0.018-0.498,0.019
			c-7.234,1.598-13.121,0.31-17.467-6.545c-2.545-4.015-6.314-7.255-9.533-10.843C310.251,149.118,325.153,147.083,340.202,145.895z
			"/>
	</g>
	<g>
		<g>
			<g>
				<path fill="#414042" d="M415.42,349.279c-0.289,13.962-11.192,24.863-25.153,25.152c-13.962,0.289-24.872-11.627-25.152-25.152
					c-0.2-9.659-15.2-9.679-15,0c0.46,22.193,17.959,39.692,40.152,40.152c22.192,0.46,39.708-18.65,40.153-40.152
					C430.62,339.601,415.62,339.62,415.42,349.279L415.42,349.279z"/>
			</g>
		</g>
		<g>
			<g>
				<path fill="#414042" d="M387.767,381.932c0,5.396,0,10.792,0,16.188c0,3.225,5,3.225,5,0c0-5.396,0-10.792,0-16.188
					C392.767,378.707,387.767,378.707,387.767,381.932L387.767,381.932z"/>
			</g>
		</g>
		<g>
			<g>
				<path fill="#414042" d="M411.453,374.276c3.232,3.142,6.466,6.282,9.699,9.423c2.313,2.247,5.852-1.285,3.535-3.535
					c-3.232-3.141-6.466-6.282-9.699-9.423C412.676,368.494,409.137,372.026,411.453,374.276L411.453,374.276z"/>
			</g>
		</g>
		<g>
			<g>
				<path fill="#414042" d="M366.053,370.35c-4.314,3.142-8.628,6.282-12.941,9.424c-2.579,1.877-0.088,6.219,2.523,4.316
					c4.314-3.141,8.628-6.281,12.941-9.422C371.155,372.79,368.664,368.448,366.053,370.35L366.053,370.35z"/>
			</g>
		</g>
	</g>
	<g>
		<g>
			<g>
				<path fill="#414042" d="M561.494,348.06c-0.203,10.933-6.084,24.79-18.738,25.153c-12.636,0.363-18.545-14.797-18.737-25.153
					c-0.179-9.661-15.18-9.679-15,0c0.36,19.459,12.571,39.545,33.737,40.153c21.152,0.607,33.395-21.634,33.738-40.153
					C576.674,338.381,561.674,338.398,561.494,348.06L561.494,348.06z"/>
			</g>
		</g>
		<g>
			<g>
				<path fill="#414042" d="M540.256,380.713c0,5.396,0,10.792,0,16.188c0,3.225,5,3.225,5,0c0-5.396,0-10.792,0-16.188
					C545.256,377.488,540.256,377.488,540.256,380.713L540.256,380.713z"/>
			</g>
		</g>
		<g>
			<g>
				<path fill="#414042" d="M559.433,373.057c2.598,3.142,5.196,6.283,7.794,9.424c2.057,2.487,5.573-1.071,3.535-3.535
					c-2.598-3.142-5.195-6.283-7.794-9.424C560.911,367.034,557.395,370.593,559.433,373.057L559.433,373.057z"/>
			</g>
		</g>
		<g>
			<g>
				<path fill="#414042" d="M522.546,369.521c-3.467,3.141-6.933,6.282-10.399,9.424c-2.395,2.169,1.152,5.694,3.535,3.535
					c3.467-3.141,6.934-6.282,10.399-9.424C528.476,370.888,524.929,367.362,522.546,369.521L522.546,369.521z"/>
			</g>
		</g>
	</g>
	<g>
		<g>
			<path fill="#414042" d="M435.023,451.998c19.16-18.65,49.43-18.65,68.59,0c4.621,4.499,11.698-2.566,7.07-7.07
				c-23.067-22.455-59.663-22.455-82.73,0C423.325,449.432,430.402,456.497,435.023,451.998L435.023,451.998z"/>
		</g>
	</g>
	<path fill="#2480A5" d="M223.249,47.569l246.069,118.823L295.78,204.337L129.509,321.113l-9.593-105.545l4.119,45.322
		l-68.119,63.83l62.882-221.766l-2.039,17.804c0-43.113,34.887-78,78-78s78,34.887,78,78"/>
	<g>
		<g>
			<path fill="#046888" d="M126.811,260.891c-1.557-15.107-3.113-30.215-4.67-45.322c-0.327-3.174-5.33-3.207-5,0
				c1.557,15.107,3.113,30.215,4.67,45.322C122.138,264.065,127.141,264.097,126.811,260.891L126.811,260.891z"/>
		</g>
	</g>
	<path fill="#9ECAD8" d="M126.849,343.582c0-98.151,150.291-177.574,336.023-177.574c19.651,0,35.553,10.334,35.553,23.106
		c-201.262,0-364.119,95.003-364.119,212.407C130.184,401.521,126.849,375.607,126.849,343.582z"/>
	<path fill-rule="evenodd" clip-rule="evenodd" fill="#F0F2F2" d="M645.008,288.819c3.901,3.655,7.794,3.206,11.68,1.926
		c3.896-1.284,6.739-0.608,6.796,3.933c0.049,3.979-0.957,6.429-6.516,6.209c-7.734-0.305-13.708-5.332-21.508-5.838
		c-6.197-0.399-2.439-5.326-0.041-7.92c5.925-6.407,15.284-6.873,22.855-12.836c-5.045-0.075-8.564-3.337-13.1-1.238
		c-2.356,1.092-4.338-0.461-5.4-2.525c-1.18-2.283,0.428-4.277,1.486-6.127c1.577-2.754,3.897-1.488,5.7-0.396
		c6.736,4.085,14.569,4.029,22.275,5.492C665.985,282.354,653.484,282.871,645.008,288.819z"/>
	<path fill-rule="evenodd" clip-rule="evenodd" fill="#F0F2F2" d="M707.011,262.443c7,1.996,11.432-0.974,15.34-4.944
		c3.916-3.981,7.778-4.935,10.675,0.527c2.538,4.785,2.847,8.378-4.019,11.575c-9.553,4.448-19.917,2.084-29.675,6.332
		c-7.751,3.376-6.271-4.928-4.983-9.563c3.182-11.448,14.223-17.842,19.672-29.778c-6.152,3.053-12.445,1.297-16.629,6.663
		c-2.172,2.79-5.539,2.143-8.11,0.307c-2.85-2.029-2.147-5.444-2.019-8.344c0.193-4.316,3.791-4.229,6.655-4.03
		c10.698,0.749,20.146-4.198,30.386-7.229C728.377,241.548,713.566,249.961,707.011,262.443z"/>
	<path fill-rule="evenodd" clip-rule="evenodd" fill="#F0F2F2" d="M771.507,229.864c7.693,5.717,14.535,4.123,21.198,1.05
		c6.679-3.081,11.878-2.456,12.905,5.62c0.896,7.076-0.395,11.646-10.342,12.389c-13.838,1.03-25.504-6.707-39.502-6.017
		c-11.118,0.55-5.43-8.99-1.686-14.1c9.25-12.62,25.826-15.356,38.096-27.522c-9,0.896-15.934-4.197-23.586,0.465
		c-3.974,2.426-7.82,0.062-10.133-3.398c-2.564-3.825-0.109-7.706,1.398-11.218c2.248-5.226,6.639-3.444,10.074-1.865
		c12.831,5.903,26.771,4.208,40.795,5.243C807.554,214.071,785.394,217.54,771.507,229.864z"/>
</g>
</svg>
