<?xml version="1.0" encoding="utf-8"?>
<!-- Generator: Adobe Illustrator 16.0.0, SVG Export Plug-In . SVG Version: 6.00 Build 0)  -->
<!DOCTYPE svg PUBLIC "-//W3C//DTD SVG 1.1//EN" "http://www.w3.org/Graphics/SVG/1.1/DTD/svg11.dtd">
<svg version="1.1" xmlns="http://www.w3.org/2000/svg" xmlns:xlink="http://www.w3.org/1999/xlink" x="0px" y="0px" width="1384px"
	 height="674px" viewBox="0 0 1384 674" enable-background="new 0 0 1384 674" xml:space="preserve">
<g id="Layer_2">
</g>
<g id="Layer_3">
</g>
<g id="Layer_1">
</g>
<g id="Layer_4">
</g>
<g id="Layer_5">
</g>
<g id="Layer_6">
</g>
<g id="Layer_7">
</g>
<g id="Layer_8">
</g>
<g id="Layer_9">
</g>
<g id="Layer_10">
</g>
<g id="Layer_11">
	<g>
		<path fill="#BB2025" stroke="#FFFFFF" stroke-width="3" stroke-miterlimit="10" d="M123.558,435.281
			c7.873,2.095,15.896,5.467,24.063,10.112l5.612-4.799c3.906-3.2,7.126-5.402,9.666-6.602c2.537-1.196,5.455-1.826,8.757-1.883
			c3.96-0.067,7.108,0.745,9.45,2.438c2.338,1.693,3.537,4.191,3.593,7.49c0.023,1.322-0.201,2.727-0.671,4.221l-9.813,34.332
			c-1.089,3.979-2.483,6.812-4.188,8.487c-1.704,1.682-4.289,2.55-7.754,2.608c-3.631,0.063-6.825-0.998-9.586-3.179
			s-7.088-6.688-12.98-13.519c-5.89-6.5-11.205-11.074-15.954-13.717s-9.598-3.922-14.548-3.837
			c-3.632,0.062-6.663,1.313-9.097,3.744c-2.435,2.436-3.622,5.385-3.563,8.85c0.067,3.961,2.111,7.6,6.128,10.913
			c4.018,3.315,10.277,7.461,18.78,12.431c8.664,4.97,15.839,9.469,21.521,13.496c5.678,4.031,10.553,9.065,14.616,15.101
			c4.064,6.04,6.163,13.017,6.299,20.937c0.087,5.116-0.653,10.247-2.214,15.388c-3.735,13.271-11.236,23.425-22.505,30.464
			c-11.269,7.043-24.494,10.69-39.673,10.949c-11.386,0.194-20.979-0.962-28.778-3.471c-7.802-2.506-15.798-6.825-23.987-12.96
			l-8.784,7.577c-4.067,3.535-7.411,5.944-10.027,7.227c-2.62,1.281-5.579,1.95-8.878,2.007c-3.798,0.064-6.822-0.789-9.081-2.567
			c-2.258-1.777-3.414-4.233-3.468-7.369c-0.028-1.647,0.275-3.386,0.902-5.214l11.5-37.085c1.246-4.311,3.007-7.394,5.289-9.25
			c2.278-1.853,5.232-2.813,8.863-2.874c3.794-0.064,7.239,1.2,10.339,3.785c3.096,2.589,7.18,7.305,12.249,14.15
			c5.408,7.501,10.405,12.697,14.996,15.589c4.587,2.893,10.015,4.286,16.287,4.18c4.455-0.076,7.866-0.835,10.235-2.28
			c2.366-1.438,4.021-3.738,4.959-6.892c0.314-0.83,0.459-2.069,0.431-3.721c-0.067-3.961-2.028-7.556-5.878-10.792
			c-3.854-3.235-9.776-7.095-17.774-11.582c-8.503-4.969-15.429-9.432-20.776-13.387c-5.352-3.95-10.017-8.946-13.996-14.986
			c-3.983-6.037-6.042-13.182-6.183-21.435c-0.098-5.773,0.709-11.481,2.432-17.124c3.271-11.444,10.208-20.722,20.817-27.835
			c10.606-7.112,22.84-10.787,36.701-11.023C107.124,432.219,115.681,433.188,123.558,435.281z"/>
		<path fill="#BB2025" stroke="#FFFFFF" stroke-width="3" stroke-miterlimit="10" d="M411.574,559.514
			c-0.319,0.66-0.463,1.646-0.44,2.954c0.02,1.146,0.318,2.044,0.904,2.686c0.584,0.646,1.366,0.959,2.349,0.942
			c1.965-0.034,3.626-0.922,4.988-2.663c1.359-1.742,2.29-2.618,2.78-2.626c0.816-0.015,1.482,0.508,1.992,1.563
			c0.509,1.059,0.776,2.318,0.802,3.793c0.24,4.746-1.233,9.395-4.431,13.949c-3.197,4.561-7.924,8.324-14.173,11.293
			c-6.253,2.969-13.798,4.532-22.636,4.683c-10.802,0.185-19.436-2.163-25.905-7.049c-6.467-4.882-9.857-11.497-10.159-19.841
			c-0.104-6.054,1.253-12.871,4.071-20.452l12.9-35.582c0.779-2.139,1.16-3.864,1.139-5.177c-0.036-2.125-0.763-3.793-2.171-4.996
			c-1.414-1.204-3.102-1.79-5.064-1.757c-2.784,0.048-5.627,1.324-8.529,3.829c-2.905,2.506-5.459,6.397-7.66,11.673l-12.755,44.175
			c-0.317,0.661-0.463,1.646-0.44,2.954c0.02,1.146,0.318,2.044,0.905,2.686c0.584,0.646,1.365,0.959,2.348,0.942
			c1.965-0.033,3.626-0.922,4.991-2.663c1.358-1.742,2.287-2.618,2.777-2.626c0.818-0.015,1.484,0.508,1.992,1.563
			c0.509,1.059,0.776,2.319,0.802,3.793c0.242,4.746-1.233,9.395-4.429,13.949c-3.199,4.561-7.923,8.324-14.174,11.293
			c-6.254,2.969-13.798,4.532-22.635,4.684c-10.803,0.184-19.438-2.164-25.907-7.05c-6.467-4.882-9.857-11.496-10.159-19.841
			c-0.104-6.054,1.253-12.871,4.072-20.452l12.9-35.582c0.778-2.138,1.161-3.864,1.14-5.177c-0.036-2.125-0.765-3.792-2.173-4.996
			c-1.414-1.204-3.1-1.79-5.064-1.756c-2.784,0.047-5.628,1.285-8.531,3.706c-2.907,2.424-5.296,6.272-7.172,11.541l-15.309,52.813
			c-0.625,1.814-0.922,3.539-0.895,5.172c0.033,1.965,0.469,3.554,1.311,4.767c0.837,1.213,2.007,2.464,3.502,3.746
			c1.158,0.963,1.996,1.851,2.5,2.659c0.506,0.813,0.604,1.793,0.296,2.941c-0.619,2.142-2.146,3.722-4.585,4.744
			c-2.438,1.023-6.276,1.58-11.512,1.67l-55.976,0.953c-4.254,0.072-7.335-0.569-9.242-1.929c-1.903-1.357-2.633-3.187-2.181-5.489
			c0.622-1.975,2.312-3.723,5.067-5.243c2.433-1.351,4.454-2.938,6.059-4.77c1.603-1.826,2.946-4.716,4.027-8.664l20.641-71.321
			c0.312-0.822,0.457-1.972,0.433-3.445c-0.031-1.799-0.423-3.186-1.177-4.154c-0.752-0.97-1.963-2.178-3.622-3.623
			c-1.66-1.278-2.827-2.406-3.495-3.378c-0.673-0.971-0.775-2.277-0.313-3.925c0.918-3.779,6.017-7.182,15.297-10.206
			c9.28-3.02,18.991-4.62,29.143-4.793c8.016-0.137,14.399,1.964,19.14,6.305c4.738,4.34,7.09,10.358,7.061,18.052
			c6.549-9.444,13.516-16.027,20.905-19.756c7.385-3.726,15.412-5.666,24.089-5.813c9.491-0.161,17.271,2.449,23.341,7.829
			c6.065,5.383,9.502,12.485,10.31,21.312c6.844-11.247,14.243-19.108,22.189-23.584c7.944-4.472,16.663-6.791,26.158-6.953
			c9.98-0.17,18.096,2.723,24.337,8.671c6.241,5.953,9.443,13.757,9.607,23.413c0.086,5.074-0.649,10.078-2.2,15.017
			L411.574,559.514z"/>
		<path fill="#BB2025" stroke="#FFFFFF" stroke-width="3" stroke-miterlimit="10" d="M566.744,471.288
			c11.413,6.767,17.239,17.265,17.481,31.504c0.092,5.401-0.785,11.557-2.633,18.464l-9.487,34.05
			c-0.154,0.658-0.221,1.478-0.204,2.459c0.044,2.621,1.129,3.91,3.258,3.874c1.964-0.033,3.626-0.921,4.989-2.664
			c1.358-1.742,2.288-2.617,2.779-2.626c0.816-0.014,1.521,0.55,2.116,1.684c0.591,1.138,0.901,2.441,0.927,3.913
			c0.236,4.417-1.364,8.948-4.805,13.588c-3.442,4.645-8.08,8.487-13.924,11.535c-5.841,3.045-12.284,4.628-19.319,4.748
			c-8.511,0.145-15.822-1.285-21.928-4.292c-6.109-3.004-10.362-7.518-12.756-13.535c-4.81,5.976-10.543,10.616-17.198,13.922
			c-6.658,3.306-13.832,5.024-21.522,5.155c-8.677,0.148-15.985-1.405-21.935-4.66c-5.95-3.253-10.405-7.517-13.356-12.788
			c-2.956-5.268-4.482-10.852-4.583-16.744c-0.044-2.615,0.157-5.159,0.607-7.623c2.424-11.337,7.967-19.942,16.626-25.822
			c8.656-5.876,19.042-8.919,31.156-9.125c13.583-0.231,26.958,1.669,40.126,5.701l5.861-16.308
			c2.008-6.91,2.983-12.245,2.919-16.013c-0.231-3.925-1.589-6.849-4.078-8.771s-6.272-2.841-11.343-2.754
			c1.026,2.604,1.563,5.295,1.611,8.076c0.103,6.058-2.102,11.332-6.606,15.83c-4.51,4.497-11.021,6.818-19.528,6.963
			c-8.021,0.137-14.31-1.514-18.871-4.959c-4.563-3.44-6.885-7.778-6.975-13.02c-0.14-8.181,4.326-15.053,13.401-20.61
			c9.072-5.558,23.02-8.496,41.843-8.816C540.213,461.304,555.333,464.526,566.744,471.288z M497.833,541.714
			c-2.806,3.569-4.172,7.399-4.103,11.488c0.045,2.62,0.695,4.739,1.95,6.352c1.256,1.618,3.027,2.405,5.32,2.366
			c2.125-0.036,4.443-0.936,6.953-2.698c2.506-1.762,4.304-4.37,5.392-7.827l4.91-14.572c-2.794-0.444-5.904-0.636-9.342-0.577
			C504.33,536.323,500.635,538.147,497.833,541.714z"/>
		<path fill="#BB2025" stroke="#FFFFFF" stroke-width="3" stroke-miterlimit="10" d="M736.962,466.302
			c5.576,5.472,8.437,12.299,8.576,20.481c0.053,3.111-0.229,5.982-0.836,8.609c-1.523,6.741-4.546,11.949-9.066,15.626
			c-4.522,3.68-9.973,5.573-16.355,5.682c-6.222,0.105-10.95-1.288-14.192-4.179c-3.242-2.892-6.131-6.771-8.67-11.641
			c-1.36-2.758-2.622-4.782-3.787-6.074c-1.169-1.289-2.488-1.923-3.962-1.898c-1.638,0.028-3.058,0.709-4.263,2.038
			c-1.205,1.333-2.271,3.643-3.197,6.931l-17.858,61.697c-0.315,0.827-0.456,2.057-0.429,3.69c0.037,2.129,0.681,3.88,1.932,5.247
			c1.252,1.373,2.951,2.693,5.102,3.966c1.987,1.278,3.313,2.319,3.983,3.125c0.666,0.81,0.93,1.867,0.79,3.178
			c-0.293,2.136-1.452,3.71-3.479,4.725c-2.032,1.018-5.499,1.568-10.408,1.651l-62.849,1.07c-4.254,0.073-7.336-0.569-9.243-1.929
			c-1.902-1.356-2.632-3.187-2.18-5.489c0.623-1.975,2.312-3.723,5.067-5.242c2.432-1.351,4.454-2.938,6.059-4.771
			c1.603-1.826,2.945-4.715,4.026-8.663l20.641-71.321c0.313-0.823,0.458-1.973,0.433-3.446c-0.03-1.799-0.422-3.186-1.176-4.154
			c-0.754-0.97-1.964-2.177-3.622-3.623c-1.661-1.278-2.827-2.406-3.496-3.378c-0.673-0.97-0.775-2.277-0.313-3.924
			c0.918-3.78,6.017-7.182,15.298-10.206c9.28-3.021,18.991-4.621,29.142-4.794c6.709-0.114,12.301,1.306,16.771,4.258
			c4.47,2.954,7.404,7.202,8.812,12.742c7.659-11.753,17.87-17.74,30.636-17.957C724.012,458.173,731.382,460.833,736.962,466.302z"
			/>
		<path fill="#BB2025" stroke="#FFFFFF" stroke-width="3" stroke-miterlimit="10" d="M853.521,461.124
			c1.74,1.283,2.631,3.067,2.67,5.357c0.011,0.656-0.135,1.806-0.433,3.444c-2.007,7.24-6.855,10.923-14.546,11.054l-14.239,0.243
			l-17.38,60.952c-0.779,2.468-1.143,5.015-1.099,7.631c0.051,2.946,0.901,4.98,2.56,6.096c1.653,1.12,3.958,1.652,6.903,1.602
			c2.616-0.044,5.887-0.426,9.804-1.148c1.955-0.524,3.67-0.8,5.143-0.825c1.144-0.02,2.01,0.334,2.598,1.062
			c0.583,0.727,0.887,1.664,0.906,2.808c0.217,3.273-2.128,7.281-7.039,12.03c-4.915,4.751-11.598,8.877-20.049,12.376
			c-8.455,3.496-17.836,5.337-28.147,5.513c-11.132,0.189-20.093-2.194-26.889-7.154c-6.8-4.957-10.271-11.858-10.422-20.696
			c-0.069-4.09,0.517-8.029,1.764-11.818l14.885-48.877c0.77-2.794,1.142-5.011,1.113-6.649c-0.056-3.271-0.88-6.04-2.474-8.308
			c-1.597-2.263-3.804-4.601-6.626-7.009c-2.495-2.247-4.247-4.14-5.255-5.681c-1.008-1.537-1.285-3.374-0.83-5.511
			c0.615-2.138,1.979-3.798,4.09-4.981c2.105-1.18,5.451-1.813,10.035-1.891l13.748-0.233l15.203-15.73
			c5.31-5.493,10.195-9.341,14.661-11.546c4.463-2.202,10.295-3.368,17.499-3.49c10.312-0.176,15.533,3.664,15.667,11.521
			c0.042,2.454-0.249,4.755-0.864,6.891l-3.244,11.352l13.011-0.222C849.351,459.23,851.78,459.846,853.521,461.124z"/>
		<path fill="#BB2025" stroke="#FFFFFF" stroke-width="3" stroke-miterlimit="10" d="M892.879,579.015
			c-11.144-4.924-20.059-12.322-26.744-22.196c-6.69-9.87-10.152-21.899-10.395-36.092c-0.168-9.901,1.382-20.654,4.649-32.265
			c7.166-24.879,18.332-42.933,33.491-54.169c15.156-11.233,31.479-17.001,48.971-17.299c9.405-0.16,17.76,1.103,25.07,3.782
			c7.307,2.684,14.058,6.611,20.253,11.786l6.595-5.312c4.396-3.541,8.106-5.994,11.14-7.369c3.028-1.37,6.439-2.091,10.236-2.155
			c4.123-0.07,7.44,0.783,9.946,2.555c2.507,1.774,3.788,4.392,3.848,7.856c0.03,1.817-0.271,3.638-0.896,5.461l-13.203,38.848
			c-1.408,4.479-3.131,7.646-5.161,9.495c-2.033,1.853-5.113,2.811-9.235,2.881c-4.293,0.072-7.821-1.392-10.596-4.399
			c-2.775-3.006-5.958-8.193-9.549-15.559c-4.093-7.687-7.397-12.748-9.914-15.182c-2.517-2.432-6.17-3.607-10.953-3.526
			c-6.768,0.115-13.213,4.396-19.34,12.832c-6.131,8.441-11.611,21.036-16.439,37.787c-4.053,14.1-5.996,25.849-5.836,35.254
			c0.141,8.253,1.812,14.372,5.017,18.358c3.201,3.993,7.442,5.939,12.726,5.85c7.753-0.132,14.116-1.974,19.093-5.523
			c4.972-3.551,10.047-8.342,15.229-14.372c3.236-3.684,5.872-6.413,7.906-8.181c2.032-1.768,4.202-2.671,6.515-2.71
			c2.971-0.051,6.128,1.382,9.481,4.294c3.349,2.914,4.965,5.857,4.854,8.831c0.225,3.628-2.607,9.289-8.499,16.979
			c-5.896,7.694-14.109,14.643-24.65,20.845c-10.539,6.207-22.577,9.422-36.104,9.652
			C916.521,586.287,904.018,583.943,892.879,579.015z"/>
		<path fill="#BB2025" stroke="#FFFFFF" stroke-width="3" stroke-miterlimit="10" d="M1099.486,456.167
			c4.518,3.555,6.829,8.468,6.936,14.736c0.064,3.797-0.454,7.435-1.547,10.919l-21.509,74.39c-0.462,1.989-0.681,3.727-0.655,5.21
			c0.037,2.147,0.476,3.83,1.325,5.055c0.844,1.222,2.02,2.401,3.524,3.528c1.174,1.137,2.017,2.071,2.524,2.805
			s0.605,1.684,0.297,2.842c-0.792,2.16-2.413,3.755-4.87,4.786c-2.459,1.032-6.248,1.592-11.36,1.68l-56.43,0.961
			c-4.289,0.073-7.438-0.574-9.441-1.943c-2.005-1.366-2.693-3.211-2.075-5.536c0.628-1.99,2.331-3.752,5.109-5.285
			c2.452-1.36,4.487-2.961,6.107-4.808c1.616-1.842,2.971-4.754,4.06-8.734l20.314-71.894c0.471-1.494,0.696-2.736,0.68-3.727
			c-0.031-1.813-0.469-3.248-1.312-4.309c-0.847-1.059-2.103-2.15-3.77-3.279c-1.673-1.29-2.85-2.427-3.524-3.405
			c-0.678-0.979-0.781-2.297-0.314-3.956c0.926-3.811,6.066-7.24,15.423-10.29c9.354-3.045,19.146-4.657,29.377-4.832
			C1087.924,450.918,1094.97,452.614,1099.486,456.167z M1110.201,402.138c4.361,4.134,6.595,9.255,6.699,15.358
			c0.073,4.292-0.969,8.52-3.126,12.68c-2.157,4.164-5.236,7.559-9.234,10.184c-4.001,2.629-8.473,3.982-13.424,4.066
			c-6.272,0.106-11.544-1.907-15.823-6.043c-4.28-4.138-6.557-9.335-6.826-15.605c-0.07-4.122,0.931-8.225,3.009-12.306
			c2.073-4.078,5.071-7.471,8.986-10.18c3.915-2.704,8.43-4.105,13.545-4.192C1100.442,395.99,1105.838,398.002,1110.201,402.138z"
			/>
		<path fill="#BB2025" stroke="#FFFFFF" stroke-width="3" stroke-miterlimit="10" d="M1221.87,453.835
			c1.755,1.293,2.651,3.092,2.691,5.4c0.011,0.661-0.136,1.821-0.437,3.474c-2.022,7.3-6.91,11.011-14.664,11.143l-14.355,0.245
			l-17.521,61.448c-0.785,2.489-1.151,5.056-1.106,7.693c0.051,2.97,0.91,5.021,2.581,6.146c1.666,1.129,3.988,1.666,6.959,1.615
			c2.637-0.045,5.935-0.431,9.883-1.159c1.972-0.528,3.7-0.807,5.185-0.831c1.152-0.021,2.025,0.337,2.618,1.069
			c0.589,0.732,0.896,1.679,0.915,2.831c0.219,3.3-2.146,7.341-7.098,12.129c-4.954,4.788-11.691,8.948-20.212,12.476
			c-8.523,3.525-17.98,5.381-28.376,5.558c-11.223,0.191-20.257-2.212-27.107-7.212c-6.855-4.997-10.354-11.955-10.506-20.865
			c-0.07-4.122,0.52-8.095,1.776-11.914l15.006-49.274c0.776-2.818,1.152-5.053,1.124-6.704c-0.056-3.299-0.889-6.089-2.495-8.376
			c-1.609-2.28-3.835-4.638-6.681-7.063c-2.514-2.268-4.28-4.176-5.296-5.729c-1.018-1.549-1.297-3.4-0.838-5.556
			c0.62-2.152,1.996-3.829,4.122-5.021c2.123-1.189,5.498-1.827,10.119-1.905l13.859-0.236l15.328-15.857
			c5.352-5.539,10.275-9.417,14.779-11.641c4.5-2.219,10.38-3.395,17.642-3.519c10.395-0.177,15.66,3.693,15.795,11.613
			c0.042,2.476-0.252,4.794-0.871,6.948l-3.272,11.443l13.117-0.224C1217.667,451.926,1220.115,452.545,1221.87,453.835z"/>
		<path fill="#BB2025" stroke="#FFFFFF" stroke-width="3" stroke-miterlimit="10" d="M1359.045,455.088
			c4.469,5.784,6.794,13.709,6.966,23.772c0.148,8.747-1.262,18.179-4.223,28.295c-5.761,20.399-15.21,39.708-28.351,57.92
			c-13.144,18.21-28.324,32.913-45.544,44.101c-17.226,11.187-34.496,16.927-51.821,17.223c-8.581,0.146-15.988-1.214-22.227-4.078
			c-6.238-2.865-11.009-6.744-14.311-11.64c-3.303-4.896-5.001-10.151-5.096-15.758c-0.043-2.476,0.324-5.204,1.098-8.188
			c1.406-4.646,3.822-8.236,7.243-10.77c3.424-2.533,7.529-3.842,12.313-3.924c7.588-0.129,13.861,2.364,18.82,7.479
			c4.952,5.114,8.168,12.196,9.645,21.251c10.55-0.675,20.209-5.381,28.974-14.11c-8.44-1.342-14.719-4.082-18.831-8.221
			c-4.118-4.138-6.99-10.649-8.627-19.534l-10.934-60.47c-0.549-3.123-1.289-5.301-2.214-6.522
			c-0.931-1.223-2.137-1.819-3.622-1.794c-1.156,0.02-2.507,0.621-4.054,1.801c-1.55,1.183-2.654,1.778-3.312,1.789
			c-1.322,0.022-2.004-1.365-2.052-4.173c-0.039-2.309,0.328-4.792,1.111-7.446c2.81-9.456,8.2-17.509,16.176-24.167
			c7.972-6.653,17.32-10.073,28.049-10.256c10.557-0.18,18.406,2.823,23.549,9.006c5.137,6.187,8.562,15.784,10.27,28.791
			l8.352,54.324c0.565,4.117,2.085,6.153,4.561,6.111c2.971-0.051,6.39-2.79,10.258-8.221c3.87-5.427,7.613-13.128,11.243-23.092
			c-5.026-4.371-8.911-9.419-11.647-15.151c-2.739-5.729-4.162-11.894-4.275-18.495c-0.087-5.113,0.492-9.745,1.745-13.894
			c1.866-6.631,4.876-11.678,9.024-15.132c4.151-3.452,8.863-5.226,14.146-5.315
			C1348.705,446.476,1354.571,449.308,1359.045,455.088z"/>
	</g>
	<path fill-rule="evenodd" clip-rule="evenodd" fill="#414042" d="M1384.477,300.535h-6.562c-0.538-2.183-1.017-4.186-1.526-6.234
		c-3.962-1.867-7.93-3.349-12.076-4.192c-1.612-0.327-3.089-1.598-4.891-0.908c-3.31,1.256-6.625,2.503-10.212,3.853
		c0.161,1.525,0.336,3.116,0.55,5.101c-3.961,3.3-9.17,4.05-14.621,4.424v13.824h-44.664c-0.368-0.363-0.787-0.78-1.204-1.197
		c-0.002-14.127-0.002-28.252-0.002-42.37c-3.141-2.999-4.071-6.938-4.358-10.988c-0.266-3.776-0.058-7.58-0.058-11.551
		c-1.704,0-3.309-0.4-4.572,0.076c-3.345,1.278-6.816,0.447-10.303,1.009c-0.818,5.329-3.41,9.697-7.903,13.097
		c-7.394,1.792-15.135,0.283-23.084,0.982c-6.148,7.371-13.079,14.383-18.597,22.362c0,15.374,0,30.534-0.004,45.69
		c0,0.128-0.074,0.263-0.149,0.376c-0.084,0.114-0.214,0.198-0.65,0.602c-1.769-0.978-3.671-2.026-5.551-3.062
		c-3.926,2.922-5.307,6.901-5.194,11.346c-1.222,0.466-2.183,0.828-3.606,1.363c0.469-3.43,0.029-6.311,0.861-9.349
		c0.772-2.854,0.169-6.089,0.169-9.471c-1.139,0-2.312,0.343-3.104-0.057c-3.017-1.519-6.194-1.754-9.466-1.688
		c-1.303,0.032-2.777,0.283-3.877-0.215c-1.444-0.66-2.45,0.649-3.798,0.296c-1.238-0.321-2.64-0.143-3.955-0.049
		c-3.705,0.251-7.508,0.162-11.066,1.026c-1.989,0.481-4.175,0.041-5.773,0.899c-1.788,0.979-3.229,0.475-5.005,0.645v-12.868
		c-0.474-0.463-0.78-0.775-1.249-1.246h-5.346c-0.188-0.273-0.333-0.386-0.333-0.498c-0.019-5.887-0.227-11.782,0.044-17.656
		c0.283-5.967-0.843-11.816-0.921-17.743c-0.023-2.278-0.488-4.604-1.506-6.428c-1.949-3.463-4.124-6.764-5.619-10.489
		c-1.463-3.66-3.276-7.183-4.864-10.794c-0.545-1.244-1.115-2.561-1.226-3.892c-0.227-2.679-0.261-5.328-0.792-8.045
		c-0.825-4.189-0.722-8.554-1.041-12.847c-0.015-0.246-0.255-0.477-0.467-0.845c-0.446,1.815-1.209,3.528-1.209,5.24
		c-0.007,4.574-1.578,8.88-1.937,13.394c-0.19,2.394-1.021,4.878-2.154,7.012c-2.709,5.083-4.335,10.526-6.333,15.954
		c-0.247-2.177-0.24-4.333-0.247-6.492c-0.01-2.272-1.343-4.315-0.939-6.703c0.284-1.691,0.055-3.46,0.055-5.219
		c-6.443-0.563-12.619,0.03-18.848-0.84c-7.425-1.043-15.021-0.21-22.585-0.854c-9.788-0.829-19.7-0.198-29.557-0.198
		c-0.477,0-8.252,2.156-8.703,2.444c-0.244,0.151-0.43,0.404-0.663,0.645v53.816c0,0.734-0.261,1.608,0.044,2.183
		c1.694,3.178,0.405,6.453,1.009,10.119c-5.386-0.854-10.29-1.065-14.636-2.179c-1.028-4.059-1.836-7.847-2.937-11.544
		c-1.47-4.938-1.106-9.964-1.126-14.983c0-0.231,0.23-0.489,0.378-0.721c0.813-1.185,0.605-2.378,0.169-3.574
		c-3.504,0-6.9-0.118-10.281,0.023c-3.268,0.145-6.652,0.114-9.742,1.014c-2.011,0.584-4.108,1.161-5.816,0.584
		c-2.721-0.909-5.375-0.576-8.065-0.743c-0.956-0.054-1.926-0.117-2.609-0.157c-1.269-6.948,1.594-13.475,0.39-20.286
		c-4.463,0.187-8.668,1.388-13.021,1.064c-3.371-0.245-6.781,0.16-10.148-0.107c-3.494-0.27-6.636,1.571-9.92,0.981
		c-0.476,5.177-0.933,10.006-1.394,14.986h-2.972c-0.406,1.612-0.698,3.102-1.194,4.525c-0.216,0.622-0.882,1.582-1.306,1.562
		c-2.304-0.101-3.732,1.749-5.874,2.196v32.847c-3.201-0.583-6.306-1.148-9.556-1.729c0-1.848,0.035-3.739-0.01-5.638
		c-0.051-1.841,0.229-3.729-0.262-5.732c-3.91,1.232-7.444-1.623-11.315-0.363v8.32c-0.962,0.184-1.77,0.334-2.704,0.513v25.175
		c-2.676,0.028-2.676,0.028-4.314-1.396v-5.621c-3.056-3.059-5.854-5.853-8.936-8.936c-2.934,0.2-6.268,0.291-9.568,0.682
		c-3.214,0.383-6.255,1.815-9.723,2.207v-60.104c-0.7,0-1.259-0.024-1.805,0.006c-6.198,0.353-12.395-0.3-18.647,0.696
		c-5.306,0.854-10.865,0.326-16.3,0.142c-5.332-0.181-10.661,0.631-16.001-0.744c-4.234-1.096-8.717,0.056-12.808,0.99
		c-4.589,1.051-9.343,1.26-13.886,2.842c0,0.544-0.02,1.123,0.007,1.703c0.239,5.618-0.688,11.301,0.878,16.85
		c0.378,16.798-0.916,33.626,0.979,50.401c-2.768,1.681-3.089,5.699-6.004,6.146c-6.406,1.325-12.153,2.513-18.084,3.74V204.56
		c-1.623-0.373-3.099-0.972-4.585-1.022c-12.092-0.392-24.205,0.682-36.282-0.864c-2.645-0.337-5.347,0.235-8.043,0.636
		c-2.956,0.441-5.665,1.199-8.337,2.311c0,8.906-0.246,17.747,0.065,26.559c0.302,8.752-1.386,17.387-0.983,26.136
		c0.21,4.843,0.033,9.702,0.033,14.563v3.914c-4.762,0-9.175-0.221-13.558,0.056c-4.365,0.288-8.46-1.455-12.629-0.925
		c0.229-1.31,0.543-2.351,0.557-3.396c0.058-4.272-0.21-8.549,0.079-12.798c0.441-6.688-1.568-13.187-0.866-20.024
		c-4.127,0-8.117-0.722-11.687,0.179c-4.276,1.089-8.211,3.553-12.176,5.365c0.324,0.621,0.835,1.147,0.781,1.596
		c-0.123,0.931-0.621,1.806-0.815,2.735c-0.23,1.096-0.255,2.241-0.451,3.352c-0.586,3.259-2.104,6.331-2.184,9.675
		c-0.127,5.298-0.029,10.593-0.029,15.893s0.755,10.743-0.216,15.851c-0.996,5.263-0.366,10.398-0.618,15.576
		c-0.256,5.285-0.05,10.59-0.05,15.89v21.179c-0.431,0.426-0.849,0.84-1.259,1.256c-0.998,0.047-1.984,0.1-3.248,0.168
		c0.399,2.627,0.772,5.073,1.116,7.341c-2.664,0.928-4.971,1.728-6.958,2.417c-1.202,9.881,0.902,19.387,0.599,29.26
		c-2.605-0.425-4.809-0.947-7.032-1.108c-2.479-0.185-4.996-0.04-7.17-0.04c-1.602,0.819-2.947,1.498-4.29,2.182
		c-1.501,3.644-3.004,7.29-4.452,10.783c-3.022,0.608-5.815,1.173-8.9,1.797v-36.952h-8.725v-11.184
		c-2.291-0.756-4.465-1.468-6.669-2.193c-1.172,3.876-2.23,7.399-3.258,10.796c-1.863,0.48-3.455,0.897-5.104,1.329
		c0,4.981-0.165,9.984,0.045,14.974c0.22,4.928-1.38,9.695-0.982,14.652c0.287,3.47,0.051,6.976,0.051,10.504
		c-1.479-1.485-2.781-2.792-4.413-4.419c0-6.62-0.24-13.834,0.069-21.028c0.309-7.137-1.047-14.168-0.949-21.27
		c0.014-1.434,0-2.868,0-4.512c-2.536,0.396-4.758-0.325-7.021,0.875c-1.091,0.571-2.906,0.237-4.235-0.184
		c-3.547-1.137-7.203-1.774-10.813-2.754c-0.075-4.565,0.444-9.195-1.361-13.76l-3.131-3.128v-7.235
		c-1.16-0.741-2.218-1.419-3.364-2.154c-0.321-1.755-0.439-3.598-1.028-5.273c-0.919-2.603-1.702-5.334-4.116-7.142
		c-1.052-0.786-1.905-1.841-2.824-2.79c-1.328-1.36-2.898-1.951-4.776-2.38c-2.199-0.495-4.383-0.853-6.336-0.774
		c-0.585-0.588-0.903-0.898-1.362-1.364v-19.829c-3.361,0-6.593-0.245-9.768,0.068c-3.229,0.319-6.206-0.953-9.352-0.953
		c-3.53-0.004-7.064,0-10.597,0h-6.45c0-7.79,0.102-15.142-0.033-22.499c-0.129-7.243,0.759-14.525-0.848-21.705
		c0-12.071,0.154-24.144-0.051-36.203c-0.204-11.954,0.188-23.874-0.629-35.855c-0.916-13.475-0.233-27.064-0.19-40.602
		c0.01-4.176-1.093-8.226-1.083-12.436c0-2.154-0.898-4.873-3.936-5.801c-1.502-0.465-2.71-1.847-3.424-2.357
		c-0.631-2.557-1.062-4.302-1.459-5.896c-2.327-1.133-4.525-2.213-6.959-3.403c-2.313-7.933-4.677-16.063-7.022-24.119
		c-1.347-0.149-2.44-0.272-3.22-0.358c-0.426-2.4-1.173-4.478-1.113-6.532c0.439-16.967-1.586-33.887-0.946-50.846
		c0.036-0.884,0.036-1.772-0.016-2.649c-0.015-0.242-0.272-0.478-0.412-0.705c-0.152,0.226-0.426,0.454-0.432,0.685
		c-0.256,7.527,0.147,15.054-0.746,22.607c-0.748,6.242-0.164,12.639-0.142,18.972c0,0.85-0.032,1.757,0.244,2.541
		c1.412,3.985,0.23,8.078,0.624,12.104c-1.801,1.052-0.415,3.154-1.627,4.679c-0.981,1.243-0.655,3.481-1.042,5.253
		c-0.354,1.604-0.752,3.222-1.395,4.721c-0.719,1.692-0.191,3.519-1.114,5.294c-0.923,1.757-0.858,4.029-1.138,5.609
		c-3.729,2.25-7.12,4.286-10.664,6.425v6.592h-8.44c-0.873,9.262,0.552,18.415-0.923,27.561c-0.826,5.164-0.392,10.584-0.08,15.861
		c0.317,5.256-0.882,10.34-1.014,15.537c-0.196,7.974,0.277,15.914-0.628,23.941c-1.089,9.639,0.157,19.444-0.957,29.199
		c-1.007,8.791,0.231,17.676-0.824,26.572c-1.109,9.501,0.181,19.158-0.935,28.771c-1.033,8.926,0.841,18.039-1.009,26.984
		c0.466,12.412-0.587,24.782-0.878,37.168c-0.035,1.585-0.006,3.173-0.006,4.589c-3.467,2.047-6.958,0.912-10.121,1.266
		c-0.522-0.521-0.832-0.834-1.457-1.457v-12.835h-3.148c-1.128-6.495-1.202-12.998-3.134-19.533
		c-2.27-0.306-4.467-0.614-6.445-0.885c-1.468-2.301-2.982-4.44-4.244-6.722c-1.714-3.082-4.3-4.905-7.361-6.586
		c-4.628-2.552-9.749-2.041-14.574-3.199c-0.472-0.113-1.07,0.216-1.583,0.394c-1.293,0.426-2.568,0.909-3.859,1.339
		c-4.437,1.481-7.875,4.202-10.162,8.282c-0.877,1.576-1.527,3.276-2.319,5.011c-0.852-2.443-1.309-4.814-2.444-6.782
		c-2.382-4.126-3.952-8.356-3.212-13.218c-0.991-0.753-1.869-1.483-2.807-2.11c-6.563-4.398-13.137-8.783-19.723-13.144
		c-0.785-0.52-1.658-0.897-2.369-1.271c-2.59,2.223-4.706,4.434-7.175,6.105c-4.898,3.321-9.202,7.38-14.081,10.704
		c-0.749,0.513-1.117,1.568-1.632,2.391c-2.736,4.325-5.462,8.658-8.015,12.709h-5.816c-0.932-7.79-1.489-15.44-1.19-23.136
		c0.034-0.99,0.006-1.992,0.006-3.198c-1.221,0-2.248-0.118-3.23,0.029c-1.077,0.156-2.104,0.775-3.17,0.815
		c-4.015,0.151-8.008-0.023-12.018,0.828c-3.028,0.644-6.222-0.205-9.367,0.858c-1.846,0.628-4.084,0-6.138,0.148
		c-1.947,0.142-3.891,0.882-5.813,0.782c-4.482-0.23-8.794,0.763-13.085,1.185c-0.802,11.76,0.548,23.418-0.905,35.072
		c-0.787,6.337-0.142,12.852-0.142,19.448h-21.552c-3.485,6.04-5.566,12.758-11.95,16.375c1.329,1.171,0.816,2.543,0.642,4.051
		h-2.188c-0.419,1.505-0.859,2.81-1.141,4.154c-0.363,1.771-0.695,3.565-0.874,5.363c-0.184,1.817-0.098,3.564-0.763,5.428
		c-0.657,1.823-0.029,4.077-0.176,6.125c-0.15,2.1-0.606,4.165-0.835,6.266c-0.113,1.119-0.015,2.252-0.015,4.049
		c-2.592-2.209-4.632-3.956-6.76-5.776h-23.454c0.594,2.376,1.141,4.554,1.764,7.032h-6.99v2.242
		c-2.654,0.486-5.12,0.936-7.902,1.443v10.227h-9.332c-0.427-0.437-0.751-0.75-1.209-1.217v-21.479
		c-4.39-0.583-8.68,0.27-12.973-0.871c-2.885-0.773-6.142-0.036-9.226-0.185c-2.979-0.137-5.933-0.633-8.912-0.818
		c-2.199-0.138-4.414-0.02-6.617-0.03c-1.962-0.01-4.014,0.307-5.212-1.068c-0.836-4.525-1.605-8.647-2.378-12.813
		c-0.796-0.279-1.668-0.688-2.592-0.898c-1.08-0.24-2.201-0.297-3.458-0.457c0.94-3.184-0.604-5.696-1.634-8.263
		c-1.016-2.532-2.324-4.941-3.51-7.403c-1.59,0-2.906,0.111-4.195-0.036c-1.371-0.151-2.696-0.78-4.058-0.806
		c-4.854-0.107-9.727-0.289-14.564,0.025c-4.952,0.32-9.717-1.423-14.874-0.887c-0.977,1.015-2.088,2.188-3.23,3.331
		c-1.604,1.615-2.693,3.323-3.367,5.688c-1.107,3.871-2.528,7.753-4.758,11.228c-2.709-0.854-5.462-1.484-8.347-1.649v6.512
		c-0.73,0.736-1.462,1.462-2.341,2.349h-8.153c-1.342,2.338-2.118,4.684-1.829,7.357c-0.741,0.692-1.486,1.4-2.223,2.082
		c-4.668,0.643-9.421-0.475-14.18,0.876c-1.509,0.429-3.158,0.341-4.816,0.238v79.993c8.188-20.093,25.499-35.053,47.754-43.759
		c24.382-9.535,58.988-11.39,81.562,4.494c15.384-7.934,35.57-13.757,48.219,0.335c5.541,6.172,7.714,14.549,8.188,23.378
		c22.121-8.445,49.787-4.25,65.657,12.676c25.978-14.737,62.871-19.094,82.736,3.344c17.22-12.832,36.846-25.435,58.945-18.881
		c17.072,5.05,25.659,17.843,29.291,33.08c9.094-12.793,20.582-23.564,36.284-27.984c17.492-4.914,36.582-5.245,54.634-6.305
		c23.959-1.406,48.647,1.887,63.562,16.198c9.548-10.979,24.381-17.192,42.12-20.015c16.412-2.61,43.921-6.286,58.152,5.536
		c15.565-9.341,35.758-10.501,50.122-0.216c3.236-1.977,6.737-3.499,10.565-4.329c7.576-1.639,15.296-1.854,20.058-8.749
		c9.3-13.455,18.491-24.223,35.267-27.844c26.59-5.746,37.791,17.622,39.147,39.782c1.708,0.479,3.354,1.093,4.927,1.836
		c3.83-9.949,8.897-18.627,20.687-24.813c14.869-7.795,31.513-13.62,47.292-19.342c24.247-8.793,51.979-10.691,69.168,8.077
		c15.628-9.849,33.415-15.401,48.387,1.205c5.622,6.234,8.441,14.368,9.321,22.89c0.403-0.124,0.806-0.226,1.198-0.348
		c-5.153-13.879-6.315-29.026,1.806-42.228c8.585-13.951,33.586-21.037,48.758-16.03c17.691,5.838,30.229,20.501,26.849,39.786
		c-1.244,7.064-3.994,13.593-7.508,19.754c7.428-0.871,14.37-3.055,20.208-9.154c8.924-9.338,18.293-16.265,30.852-19.864
		c10.604-3.04,24.514-6.315,34.748-0.328c9.013,5.277,11.526,14.166,12.166,23.495c4.723,1.404,8.723,3.848,11.802,7.396
		c16.208-9.667,35.858-19.016,52.687-9.378c8.067,4.618,13.563,11.891,17.692,20.174c9.446-18.964,23.008-33.867,48.388-25.921
		c18.116,5.669,27.445,20.778,31.553,38.371V300.535z"/>
</g>
</svg>
