<?xml version="1.0" encoding="utf-8"?>
<!-- Generator: Adobe Illustrator 16.0.0, SVG Export Plug-In . SVG Version: 6.00 Build 0)  -->
<!DOCTYPE svg PUBLIC "-//W3C//DTD SVG 1.1//EN" "http://www.w3.org/Graphics/SVG/1.1/DTD/svg11.dtd">
<svg version="1.1" xmlns="http://www.w3.org/2000/svg" xmlns:xlink="http://www.w3.org/1999/xlink" x="0px" y="0px" width="1153px"
	 height="989.723px" viewBox="0 0 1153 989.723" enable-background="new 0 0 1153 989.723" xml:space="preserve">
<g id="Layer_2">
</g>
<g id="Layer_3">
</g>
<g id="Layer_1">
</g>
<g id="Layer_4">
</g>
<g id="Layer_5">
</g>
<g id="Layer_6">
</g>
<g id="Layer_7">
</g>
<g id="Layer_8">
</g>
<g id="Layer_9">
</g>
<g id="Layer_10">
	<circle fill-rule="evenodd" clip-rule="evenodd" fill="#FFFFFF" cx="324.962" cy="675.555" r="248.904"/>
	<path fill-rule="evenodd" clip-rule="evenodd" fill="#FFFFFF" d="M176.612,944.245c0.081-0.112,0.157-0.224,0.335-0.471
		c-0.627-0.135-1.184-0.304-1.752-0.366c-6.895-0.752-13.623-2.265-20.198-4.45c-33.659-11.188-59.489-38.946-68.167-73.216
		c-1.809-7.144-3.15-14.372-3.803-21.709c-0.971-10.902-0.386-21.684,2.955-32.197c0.676-2.121,1.52-4.186,2.257-6.287
		c0.19-0.549,0.271-1.137,0.403-1.704c0.408-0.706,0.849-1.395,1.217-2.121c3.213-6.32,7.061-12.221,11.492-17.759
		c5.359-6.692,11.33-12.81,17.531-18.702c3.607-3.429,7.414-6.649,11.111-9.983c7.243-6.531,12.324-14.424,15.006-23.84
		c1.477-5.18,2.329-10.435,2.209-15.834c-0.025-1.115-0.028-2.23-0.008-3.347c0.074-3.811-0.523-7.553-1.145-11.29
		c-0.734-4.412-1.965-8.696-3.303-12.954c-0.94-2.994-1.506-6.042-1.444-9.211c0.065-3.275,0.81-6.338,2.515-9.132
		c1.517-2.482,3.672-4.284,6.328-5.441c1.854-0.808,3.803-1.199,5.842-1.307c7.227-0.38,13.592,1.873,19.398,6.054
		c4.465,3.216,8.076,7.227,11.212,11.697c4.356,6.21,7.406,13.04,9.55,20.294c1.563,5.283,2.711,10.658,3.568,16.096
		c0.942,5.965,1.387,11.985,0.927,18c-0.688,8.985-2.802,17.616-7.444,25.464c-1.938,3.273-4.275,6.256-6.869,9.042
		c-0.856,0.921-1.652,1.911-2.375,2.941c-0.421,0.597-0.729,1.307-0.938,2.011c-0.389,1.313,0.137,2.544,1.305,3.26
		c0.838,0.513,1.744,0.819,2.742,0.833c1.488,0.021,2.958-0.025,4.428-0.374c6.51-1.543,13.033-3.028,19.547-4.545
		c11.221-2.613,22.438-5.239,33.66-7.851c8.254-1.92,16.508-3.823,24.764-5.743c10.93-2.541,21.859-5.094,32.791-7.636
		c8.254-1.918,16.51-3.826,24.764-5.74c8.326-1.935,16.646-3.895,24.98-5.794c4.877-1.112,9.735-1.102,14.496,0.625
		c4.234,1.536,7.413,4.321,9.584,8.257c2.471,4.483,3.547,9.305,3.172,14.389c-0.401,5.462-2.805,9.97-7.039,13.445
		c-3.275,2.69-7.056,4.377-11.182,5.308c-2.104,0.475-4.203,0.963-6.299,1.467c-9.396,2.261-18.792,4.523-28.185,6.794
		c-9.827,2.374-19.651,4.761-29.479,7.135c-6.07,1.467-12.143,2.917-18.213,4.379c-0.718,0.173-1.431,0.372-2.113,0.553
		c-0.185,0.556,0.203,0.691,0.506,0.862c2.928,1.664,5.614,3.65,7.928,6.099c2.377,2.515,4.244,5.357,5.262,8.703
		c0.947,3.111,1.16,6.259,0.639,9.477c-0.309,1.913-0.678,3.8-1.35,5.624c-2.273,6.182-6.354,10.844-11.925,14.267
		c-0.488,0.299-0.951,0.637-1.646,1.104c0.745,0.376,1.252,0.639,1.767,0.889c4.362,2.119,7.784,5.19,9.698,9.729
		c0.871,2.063,1.406,4.225,1.473,6.485c0.143,4.852-0.811,9.456-3.069,13.773c-0.239,0.459-0.417,0.951-0.626,1.428
		c-0.365,0.367-0.78,0.695-1.084,1.104c-3.074,4.138-7.131,6.895-11.959,8.581c-0.279,0.098-0.561,0.192-1.032,0.354
		c0.339,0.285,0.554,0.527,0.821,0.68c0.771,0.441,1.605,0.789,2.348,1.275c3.875,2.548,5.887,6.188,6.197,10.789
		c0.428,6.306-1.656,11.685-6.01,16.222c-2.755,2.875-5.955,5.151-9.441,7.041c-3.148,1.708-6.406,3.061-9.951,3.805
		c-12.799,2.688-25.574,5.494-38.359,8.242c-4.506,0.968-9.012,1.927-13.531,2.823c-1.746,0.347-3.529,0.502-5.296,0.765
		c-0.565,0.084-1.122,0.234-1.753,0.368c0.188,0.251,0.268,0.362,0.35,0.474c-0.446,0-0.893,0-1.338,0
		c-0.045-0.141-0.078-0.396-0.135-0.401c-0.393-0.041-0.789-0.027-1.188-0.031c-0.291-0.029-0.583-0.087-0.873-0.087
		c-4.343-0.006-8.683-0.005-13.023,0.001c-0.293,0.001-0.582,0.059-0.875,0.09c-0.371-0.004-0.745-0.035-1.11,0.008
		c-0.084,0.01-0.139,0.273-0.206,0.421C177.506,944.245,177.059,944.245,176.612,944.245z"/>
</g>
<g id="Layer_11">
	<ellipse fill="#FFFFFF" cx="780.321" cy="242.292" rx="343" ry="194.956"/>
	<g>
		<circle fill-rule="evenodd" clip-rule="evenodd" fill="#046888" cx="323.307" cy="678.016" r="228.904"/>
		<path fill-rule="evenodd" clip-rule="evenodd" fill="#2480A5" d="M320.301,750.586c-0.832,1.426-1.484,2.996-2.523,4.25
			c-7.136,8.617-11.696,18.277-12.628,29.561c-0.333,4.041-2.49,6.887-6.097,9.074c-5.819,3.527-11.248,7.699-17.002,11.344
			c-2.717,1.721-4.07,3.762-3.59,6.949c0.72,4.773-0.969,8.348-4.349,11.934c-15.509,16.459-30.698,33.219-46.002,49.869
			c-10.858-4.037-20.936-9.547-30.431-16.154c-2.441-2.254-1.734-5.223-1.607-7.939c0.387-8.248,1.395-16.449,2.232-24.66
			c0.103-1,0.35-1.953,1.069-2.695c0.165-0.779,2.979,0.152,1.226-1.93c-0.952-1.131-1.268-2.533-1.35-3.994
			c0.396-6.805,0.574-13.627,1.566-20.373c0.791-5.375-0.088-9.777-5.193-12.852c-3.26-1.965-5.949-4.811-9.1-6.988
			c-2.986-2.063-5.029-4.725-6.243-8.162c-3.437-9.729-6.634-19.559-11.687-28.631c-0.572-1.029-0.82-2.18-0.66-3.383
			c0.018-0.539,0.066-1.072,0.144-1.605c1.235-6.191,1.208-12.389,0.121-18.588c-0.123-0.496-0.192-1.004-0.214-1.516
			c-0.406-2.93,2.057-4.314,3.365-6.348c1.52-2.361,3.979-4.061,4.789-6.895c1.313-4.436,2.245-8.865-0.056-13.279
			c-0.979-2.213-2.958-2.387-5.005-2.58c-8.79-0.83-15.867-5.283-22.473-10.717c-0.203-0.432-0.326-0.891-0.398-1.361
			c0.381-2.182,0.848-4.371-0.176-6.52c-0.271-1.09-1.057-1.75-1.973-2.303c-5.008-4.021-9.845-8.277-15.88-10.768
			c-3.448-2.906-7.003,0.867-10.482-0.152c-5.126-0.246-10.251,0.059-15.362-0.246c-2.861-0.17-5.669-0.576-6.834-3.834
			c0.489-15.1,4.166-29.613,8.855-43.809c20.047-60.671,59.071-104.794,116.578-132.593c1.031-0.499,2.173-0.771,3.264-1.148
			c0.621,1.35,1.525,2.641,1.82,4.058c2.008,9.652,7.164,16.573,16.275,20.864c5.105,2.404,5.113,8.596,7.527,13.014
			c0.659,1.208-0.557,1.682-1.535,1.957c-1.273,0.356-2.543,0.791-3.845,0.964c-5.8,0.769-10.772,2.958-14.351,7.817
			c-0.893,1.212-2.128,2.091-3.658,2.436c-0.318,0.33-0.695,0.559-1.139,0.674c-3.521-0.076-7.057-0.635-10.543,0.321
			c-0.316,0.3-0.541,0.657-0.672,1.073c0.123,1.82,1.535,1.271,2.592,1.45c1.545,0.263,3.291-0.754,4.643,0.722
			c4.412,0.246,7.531,2.884,10.758,5.529c2.273,1.863,3.033,3.259,0.385,5.383c-1.811,1.451-3.346,3.244-5.004,4.885
			c-0.391,0.336-0.84,0.538-1.351,0.606c-3.761-0.237-7.523-0.157-11.286-0.058c-0.518-0.072-0.943-0.311-1.275-0.714
			c-6.3-7.181-6.3-7.181-16.422-2.07c-0.775,1.286-2.146,1.952-3.136,3.019c-0.338,0.277-0.604,0.61-0.813,0.994
			c-0.654,3.497,0.184,7.067-0.535,10.56c-0.047,0.217-0.094,0.432-0.141,0.648c-5.111,1.553-6.911,5.055-6.037,10.172
			c0.555,3.242-0.791,5.672-3.061,7.938c-3.286,3.285-5.955,7.273-9.54,10.146c-5.401,4.33-5.684,9.414-4.129,15.426
			c0.865,3.35,1.003,6.879,1.692,10.281c0.605,2.99-1.588,3.768-3.465,4.65c-2.445,1.15-2.608-1.391-3.393-2.568
			c-2.83-4.252-4.773-9.068-8.206-12.945c-0.212-0.068-0.425-0.137-0.64-0.205c-0.42-0.17-0.854-0.285-1.302-0.346
			c-4.565-0.068-9.13-0.191-13.69,0.072c-0.221,0.061-0.442,0.121-0.663,0.182c-0.224,0.053-0.445,0.105-0.669,0.156
			c-4.185,4.15-9.189,3.465-14.298,2.518c-7.724-1.43-12.681,3.066-12.253,10.887c0.316,5.785,1.088,11.574,0.291,17.369
			c-0.25,1.818,0.752,2.822,1.971,3.701c3.08,2.219,6.217,4.357,9.329,6.529c0.206,0.053,0.411,0.107,0.618,0.16
			c0.205,0.064,0.408,0.129,0.613,0.195c1.509,0.223,3.017,0.221,4.523,0.002c0.203-0.063,0.408-0.127,0.611-0.189
			c0.207-0.053,0.414-0.105,0.621-0.158c3.538-8.277,10.171-5.299,16.801-4.652c-1.438,3.395-2.657,6.453-4.025,9.445
			c-1.461,3.197-0.715,5.135,2.9,5.67c3.945,0.584,7.875,1.322,11.842,1.695c2.605,0.246,3.462,1.398,3.234,3.871
			c-0.338,3.645-0.486,7.307-0.803,10.955c-0.253,2.934,0.822,4.654,3.823,5.42c4.347,1.111,8.655,2.416,12.884,3.91
			c1.658,0.586,3.001,0.313,4.211-0.516c12.286-8.398,26.038-7.725,39.875-6.527c0.775,0.066,1.521,0.471,2.283,0.719
			c-2.493,1.18-5.137,0.143-6.535,0.387c1.4-0.213,4.041,0.773,6.535-0.385c4.105,4.1,8.584,7.898,12.212,12.385
			c3.586,4.434,7.94,6.982,13.354,7.672c8.497,1.082,14.325,5.285,17.172,13.457c3.552,10.191,10.888,15.215,21.371,17.475
			c9.846,2.121,19.335,5.902,28.979,8.955C322.184,736.496,320.908,743.555,320.301,750.586z"/>
		<path fill-rule="evenodd" clip-rule="evenodd" fill="#2480A5" d="M425.427,699.672c-1.521-2.748-3.32-5.379-4.515-8.262
			c-4.453-10.754-10.764-20.164-19.471-27.928c-0.37-0.484-0.563-1.031-0.576-1.641c0.089-11.242,0.114-22.484-0.014-33.727
			c0.01-0.605,0.186-1.158,0.528-1.66c1.886-3.1,3.839-6.162,5.642-9.311c3.176-5.543,6.92-10.439,13.256-12.67
			c0.945-0.332,1.736-0.947,1.964-2.037c-0.157-3.666-1.279-7.391,0.702-10.918c5.482-5.043,12.125-6.83,19.384-7.148
			c4.047-0.176,7.474-1.869,10.578-4.621c3.317-2.941,7.068-5.395,10.63-8.061c8.159-1.479,16.383-0.494,24.574-0.58
			c2.869-0.031,3.363,2.117,3.419,4.436c-1.431,9.141-1.431,9.143,7.585,12.031c6.324,2.027,12.733,3.828,18.944,6.16
			c4.066,1.525,5.911,0.131,6.925-3.623c0.563-2.082,1.282-4.123,1.928-6.184c1.691-5.408,1.691-5.408,6.5-2.111
			c7.647,13.959,12.291,29.037,15.846,44.412c4.318,18.678,7.106,37.641,6.037,56.873c-2.519,45.234-16.152,86.672-43.162,123.381
			c-0.388,0.527-0.927,0.941-1.395,1.41c-5.318-9.359-10.647-18.713-15.938-28.086c-0.56-0.992-1.018-2.039-0.48-3.295
			c4.894-11.436,2.283-23.537,3.225-35.33c0.606-7.602-1.357-13.98-6.179-19.67c-0.305-0.365-0.502-0.781-0.604-1.242
			c0.267-4.842,0.242-9.684,0.031-14.525c-0.057-0.221-0.112-0.439-0.168-0.66c-0.048-0.221-0.096-0.441-0.144-0.664
			c-1.602-3.293-4.683-2.029-6.997-1.82c-4.18,0.381-6.675-1.08-8.635-4.725c-1.428-2.654-2.59-5.689-5.43-7.379
			c-0.189-0.049-0.379-0.096-0.573-0.146c-0.391-0.139-0.785-0.242-1.196-0.307c-2.43-0.1-4.852-0.1-7.273,0.002
			c-0.433,0.063-0.854,0.174-1.261,0.336c-0.208,0.064-0.416,0.129-0.625,0.193c-4.362,2.953-8.725,5.904-13.087,8.855
			c-0.408,0.377-0.889,0.59-1.442,0.639c-5.909-0.295-11.83,0.17-17.737-0.266C425.957,699.76,425.691,699.717,425.427,699.672z"/>
		<path fill-rule="evenodd" clip-rule="evenodd" fill="#2480A5" d="M520.92,564.57c-6.396-2.807-11.305-7.945-17.574-11.023
			c-6.534-3.207-12.488-7.79-19.244-10.305c-7.455-2.777-15.533-3.814-23.445-0.721c0.485,6.717-3.745,8.117-9.188,8.152
			c-3.265,5.02-6.559,10.021-9.783,15.066c-3.217,5.035-9.559,6.295-14.6,2.838c-9.091-6.236-11.842-14.541-8.482-24.983
			c0.74-2.302,2.378-1.917,3.969-1.995c6.153-0.302,12.307-0.742,18.462-0.795c3.767-0.033,5.13-1.385,5.488-5.258
			c0.504-5.449-1.321-9.242-5.702-12.225c-1.992-1.356-3.723-3.099-5.15-5.645c4.561,0.244,9.131,0.383,13.68,0.768
			c3.573,0.301,6.408-0.763,8.981-3.291c4.147-4.076,8.524-7.918,12.804-11.859c17.523,14.037,31.422,31.228,43.396,50.066
			C516.834,556.988,518.799,560.828,520.92,564.57z"/>
		<path fill-rule="evenodd" clip-rule="evenodd" fill="#2480A5" d="M452.891,488.967c-0.836,5.743-1.815,11.47-2.446,17.234
			c-0.31,2.822-1.71,3.754-4.238,3.666c-5.815-0.203-11.629-0.471-17.446-0.613c-2.208-0.054-3.322-0.916-2.255-3.023
			c5.193-10.246,0.985-19.605-2.53-29.067c-0.859-2.311-1.488-4.706-2.223-7.062C432.844,475.216,443.277,481.414,452.891,488.967z"
			/>
		<path fill-rule="evenodd" clip-rule="evenodd" fill="#2480A5" d="M302.125,451.431c-3.486,5.117-8.309,9.021-12.439,13.553
			c-2.336,2.564-3.879,4.846-2.209,8.316c1.09,2.266,0.323,3.448-2.275,3.236c-0.164-0.014-0.338-0.018-0.498,0.019
			c-7.234,1.598-13.121,0.31-17.467-6.545c-2.545-4.015-6.314-7.255-9.533-10.843C272.174,454.653,287.076,452.618,302.125,451.431z
			"/>
	</g>
	<path fill-rule="evenodd" clip-rule="evenodd" fill="#319CBC" d="M185.219,924.612c0.07-0.097,0.137-0.192,0.289-0.405
		c-0.539-0.115-1.019-0.261-1.508-0.314c-5.932-0.647-11.721-1.949-17.379-3.829c-28.962-9.627-51.188-33.512-58.654-62.999
		c-1.556-6.146-2.711-12.366-3.271-18.679c-0.836-9.381-0.332-18.658,2.543-27.704c0.58-1.825,1.307-3.602,1.941-5.41
		c0.164-0.472,0.232-0.978,0.347-1.466c0.352-0.607,0.73-1.2,1.048-1.825c2.764-5.438,6.074-10.516,9.889-15.28
		c4.61-5.759,9.748-11.022,15.084-16.093c3.104-2.95,6.379-5.721,9.561-8.59c6.232-5.62,10.604-12.411,12.912-20.513
		c1.27-4.457,2.004-8.979,1.9-13.624c-0.021-0.96-0.024-1.92-0.006-2.88c0.063-3.279-0.451-6.499-0.986-9.715
		c-0.631-3.796-1.689-7.482-2.842-11.146c-0.809-2.576-1.295-5.198-1.242-7.925c0.057-2.818,0.697-5.454,2.164-7.857
		c1.305-2.137,3.16-3.687,5.445-4.683c1.594-0.694,3.271-1.031,5.025-1.124c6.219-0.327,11.695,1.611,16.691,5.209
		c3.842,2.767,6.949,6.218,9.647,10.064c3.748,5.344,6.373,11.221,8.218,17.462c1.344,4.546,2.332,9.171,3.07,13.85
		c0.811,5.133,1.192,10.313,0.797,15.488c-0.593,7.731-2.41,15.157-6.405,21.91c-1.667,2.816-3.679,5.383-5.911,7.78
		c-0.736,0.792-1.421,1.645-2.043,2.53c-0.362,0.514-0.627,1.125-0.807,1.73c-0.334,1.13,0.118,2.189,1.123,2.805
		c0.721,0.441,1.5,0.705,2.359,0.717c1.28,0.019,2.545-0.021,3.81-0.321c5.601-1.328,11.214-2.606,16.819-3.911
		c9.654-2.248,19.307-4.508,28.962-6.755c7.102-1.652,14.204-3.29,21.308-4.941c9.405-2.187,18.81-4.383,28.217-6.57
		c7.1-1.65,14.204-3.292,21.307-4.939c7.164-1.664,14.323-3.351,21.494-4.985c4.197-0.957,8.377-0.947,12.473,0.538
		c3.645,1.321,6.379,3.718,8.246,7.104c2.127,3.857,3.053,8.006,2.73,12.381c-0.346,4.699-2.414,8.578-6.057,11.568
		c-2.818,2.315-6.071,3.767-9.622,4.567c-1.81,0.408-3.616,0.828-5.419,1.262c-8.086,1.945-16.17,3.893-24.252,5.846
		c-8.456,2.043-16.909,4.097-25.365,6.14c-5.223,1.262-10.448,2.51-15.671,3.768c-0.618,0.148-1.231,0.32-1.819,0.476
		c-0.158,0.479,0.176,0.595,0.436,0.742c2.52,1.432,4.831,3.141,6.822,5.247c2.045,2.164,3.651,4.61,4.527,7.489
		c0.814,2.677,0.998,5.385,0.549,8.153c-0.266,1.646-0.583,3.27-1.161,4.84c-1.956,5.318-5.468,9.33-10.261,12.275
		c-0.42,0.257-0.818,0.548-1.416,0.95c0.642,0.323,1.078,0.55,1.521,0.765c3.753,1.823,6.697,4.466,8.345,8.371
		c0.749,1.775,1.211,3.635,1.268,5.58c0.122,4.175-0.698,8.137-2.642,11.852c-0.206,0.395-0.358,0.818-0.538,1.229
		c-0.314,0.315-0.672,0.598-0.934,0.95c-2.645,3.561-6.136,5.933-10.289,7.384c-0.24,0.084-0.482,0.165-0.889,0.304
		c0.292,0.245,0.477,0.454,0.707,0.585c0.664,0.38,1.381,0.679,2.02,1.098c3.334,2.192,5.065,5.324,5.333,9.283
		c0.367,5.426-1.427,10.054-5.171,13.958c-2.371,2.474-5.125,4.433-8.125,6.059c-2.708,1.47-5.512,2.633-8.563,3.273
		c-11.012,2.313-22.004,4.728-33.006,7.092c-3.877,0.833-7.754,1.658-11.643,2.43c-1.502,0.298-3.037,0.432-4.557,0.657
		c-0.486,0.072-0.965,0.202-1.509,0.317c0.161,0.216,0.231,0.312,0.302,0.407c-0.385,0-0.769,0-1.152,0
		c-0.039-0.121-0.066-0.341-0.115-0.346c-0.338-0.035-0.68-0.023-1.021-0.026c-0.252-0.025-0.502-0.075-0.752-0.075
		c-3.736-0.005-7.471-0.004-11.206,0.001c-0.251,0.001-0.501,0.051-0.753,0.077c-0.318-0.003-0.641-0.03-0.955,0.007
		c-0.072,0.009-0.119,0.235-0.178,0.362C185.988,924.612,185.604,924.612,185.219,924.612z"/>
	<g>
		<g>
			<path fill="#414042" d="M379.345,710.474c-10.9-12.198-28.943-16.059-44.271-19.321c-20.467-4.355-41.616-5.734-62.502-5.787
				c-9.674-0.024-9.673,14.976,0,15c18.342,0.047,36.723,1.167,54.777,4.509c13.58,2.514,31.709,5.372,41.391,16.207
				C375.196,728.308,385.769,717.662,379.345,710.474L379.345,710.474z"/>
		</g>
	</g>
	<g>
		<ellipse fill="#414042" cx="243.639" cy="578.549" rx="24.392" ry="54.99"/>
		<ellipse fill="#FFFFFF" cx="244.106" cy="556.414" rx="12.979" ry="22.808"/>
		<path fill="#2480A5" d="M245.107,606.592c-5.539,0-10.523-2.807-14.02-7.286c-0.078,1.012-0.123,2.045-0.123,3.095
			c0,12.597,5.813,22.807,12.98,22.807s12.979-10.21,12.979-22.807c0-0.227-0.007-0.449-0.01-0.673
			C253.662,604.771,249.564,606.592,245.107,606.592z"/>
	</g>
	<g>
		
			<ellipse transform="matrix(0.9669 0.2553 -0.2553 0.9669 163.7515 -82.7949)" fill="#414042" cx="400.851" cy="589.471" rx="24.391" ry="54.99"/>
		
			<ellipse transform="matrix(0.9669 0.2552 -0.2552 0.9669 158.505 -85.0516)" fill="#FFFFFF" cx="406.953" cy="568.188" rx="12.981" ry="22.808"/>
		<path fill="#2480A5" d="M395.113,616.959c-5.354-1.413-9.459-5.399-11.695-10.623c-0.332,0.959-0.64,1.946-0.908,2.961
			c-3.215,12.18-0.202,23.535,6.729,25.365c6.932,1.829,15.155-6.56,18.371-18.739c0.059-0.218,0.107-0.435,0.162-0.652
			C403.85,617.382,399.423,618.098,395.113,616.959z"/>
	</g>
	<g>
		<g>
			<path fill="#414042" d="M211.008,509.4c18.23-17.769,47.031-17.768,65.262,0c9.237,9.003,23.391-5.128,14.143-14.143
				c-26.041-25.381-67.506-25.381-93.547,0C187.617,504.272,201.771,518.403,211.008,509.4L211.008,509.4z"/>
		</g>
	</g>
	<g>
		<g>
			<path fill="#414042" d="M377.863,556.104c22.941-11.385,50.083-1.551,61.877,20.823c6.016,11.412,23.277,1.304,17.27-10.095
				c-17.063-32.369-56.875-44.061-89.24-27.998C356.215,544.568,366.352,561.817,377.863,556.104L377.863,556.104z"/>
		</g>
	</g>
	<g>
		<path fill="#2480A5" d="M795.033,273.083l21.609-36.85l-22.156-12.993c2.548-8.605,3.732-17.425,3.621-26.167l24.859-6.48
			l-10.776-41.336l-24.858,6.48c-4.17-7.684-9.511-14.802-15.936-21.068l12.992-22.157L747.54,90.903l-12.993,22.156
			c-8.605-2.548-17.426-3.732-26.166-3.622l-6.482-24.858l-41.336,10.776l6.48,24.859c-7.684,4.17-14.801,9.509-21.068,15.936
			l-22.156-12.993l-21.609,36.85L624.366,173c-2.55,8.606-3.734,17.423-3.623,26.165l-24.858,6.48l10.777,41.337l24.857-6.48
			c4.17,7.683,9.51,14.802,15.936,21.068l-12.992,22.157l36.849,21.608l12.993-22.156c8.607,2.549,17.426,3.733,26.166,3.622
			l6.48,24.859l41.338-10.777l-6.48-24.859c7.684-4.169,14.801-9.509,21.068-15.935L795.033,273.083z M693.215,225.762
			c-15.265-8.953-20.384-28.585-11.432-43.852c8.953-15.266,28.586-20.385,43.852-11.432c15.268,8.952,20.385,28.585,11.432,43.852
			C728.115,229.596,708.482,234.714,693.215,225.762z"/>
		<path fill="#2480A5" d="M970.975,177.745l-20.174-23.639l-14.215,12.129c-5.308-3.803-11.084-6.721-17.119-8.729l1.474-18.63
			l-30.979-2.45l-1.475,18.63c-6.273,1.034-12.439,3.005-18.279,5.928l-12.129-14.213l-23.639,20.173l12.131,14.213
			c-3.806,5.308-6.722,11.086-8.729,17.121l-18.63-1.475l-2.451,30.98l18.631,1.473c1.034,6.275,3.004,12.441,5.928,18.279
			l-14.213,12.129l20.172,23.64l14.215-12.129c5.307,3.803,11.086,6.721,17.119,8.727l-1.473,18.63l30.979,2.452l1.473-18.631
			c6.276-1.034,12.441-3.005,18.281-5.928L940,290.64l23.641-20.173l-12.132-14.213c3.806-5.308,6.722-11.086,8.729-17.121
			l18.629,1.473l2.451-30.979l-18.631-1.474c-1.032-6.274-3.006-12.44-5.928-18.278L970.975,177.745z M914.172,236.438
			c-9.794,8.357-24.508,7.193-32.864-2.6c-8.358-9.792-7.193-24.507,2.6-32.864c9.792-8.358,24.507-7.194,32.864,2.599
			C925.127,213.368,923.965,228.081,914.172,236.438z"/>
		<path fill="#2480A5" d="M875.555,304.881l-16.661-19.523l-11.739,10.018c-4.383-3.143-9.156-5.551-14.139-7.209l1.217-15.387
			l-25.586-2.023l-1.217,15.386c-5.182,0.854-10.273,2.483-15.098,4.897l-10.018-11.74l-19.521,16.661l10.016,11.739
			c-3.141,4.383-5.55,9.156-7.209,14.139l-15.385-1.217l-2.025,25.585l15.387,1.218c0.854,5.182,2.484,10.273,4.896,15.097
			l-11.738,10.017l16.661,19.524l11.737-10.018c4.384,3.14,9.156,5.549,14.14,7.208l-1.218,15.386l25.587,2.025l1.218-15.387
			c5.182-0.854,10.273-2.482,15.098-4.896l10.018,11.738l19.523-16.661l-10.02-11.738c3.143-4.384,5.551-9.156,7.21-14.139
			l15.387,1.216l2.024-25.585l-15.389-1.217c-0.852-5.182-2.482-10.274-4.896-15.097L875.555,304.881z M828.642,353.355
			c-8.087,6.901-20.239,5.94-27.142-2.148s-5.942-20.24,2.146-27.143c8.088-6.902,20.24-5.94,27.143,2.148
			C837.691,334.3,836.73,346.452,828.642,353.355z"/>
	</g>
	<circle fill="#FFFFFF" cx="595.08" cy="591.799" r="19.92"/>
	<circle fill="#FFFFFF" cx="686.547" cy="485.871" r="30.156"/>
	<circle fill="#FFFFFF" cx="647.877" cy="554.716" r="23.832"/>
</g>
</svg>
