<?xml version="1.0" encoding="utf-8"?>
<!-- Generator: Adobe Illustrator 16.0.0, SVG Export Plug-In . SVG Version: 6.00 Build 0)  -->
<!DOCTYPE svg PUBLIC "-//W3C//DTD SVG 1.1//EN" "http://www.w3.org/Graphics/SVG/1.1/DTD/svg11.dtd">
<svg version="1.1" xmlns="http://www.w3.org/2000/svg" xmlns:xlink="http://www.w3.org/1999/xlink" x="0px" y="0px"
	 width="756.108px" height="599.723px" viewBox="0 0 756.108 599.723" enable-background="new 0 0 756.108 599.723"
	 xml:space="preserve">
<g id="Layer_2">
</g>
<g id="Layer_3">
</g>
<g id="Layer_1">
</g>
<g id="Layer_4">
</g>
<g id="Layer_5">
</g>
<g id="Layer_6">
</g>
<g id="Layer_7">
</g>
<g id="Layer_8">
</g>
<g id="Layer_9">
</g>
<g id="Layer_10">
	<circle fill-rule="evenodd" clip-rule="evenodd" fill="#FFFFFF" cx="427.293" cy="312.012" r="248.904"/>
</g>
<g id="Layer_11">
	<g id="XMLID_1_">
		<g>
			<path fill="#FFFFFF" d="M225.416,314.688c24.134,8.71,33.266,27.985,36.504,50.575c3.278,22.824-5.268,41.388-26.497,54.321
				c-1.428,0.864-2.529,2.744-3.116,4.35c-5.354,14.775-15.988,24.329-31.055,29.813c-2.376,0.861-4.664,2.449-6.514,4.169
				c-10.834,10.09-23.266,17.512-37.597,21.745c-21.38,6.323-38.503-4.813-41.15-26.993c-35.432,4.894-59.025-21.249-46.67-52.003
				c-8.65-2.37-15.982-6.536-20.73-14.162c-8.664-13.896-7.348-27.436,2.747-40.704c7.89-10.387,18.124-18.279,30.378-23.021
				c10.782-4.19,22.036-7.232,33.198-10.375c7.909-2.223,9.911-5.235,5.549-11.57c-3.632-5.291-7.704-10.669-12.806-14.584
				c-28.545-21.945-19.039-64.516,7.072-80.784c11.236-7,21.914-5.857,29.836,4.038c7.799,9.757,9.275,21.602,11.504,33.306
				c3.794,19.867,14.985,34.726,33.077,44.88c12.517,7.017,25.362,13.768,34.005,25.521
				C223.649,313.884,224.565,314.384,225.416,314.688z M257.518,372.359c-1.374-17.456-9.398-31.535-25.242-41.041
				c0.044,9.461,0.088,18.222,0.132,26.981c-1.421-0.562-1.535-1.191-1.64-1.835c-4.125-24.943-15.184-45.598-39.53-57.008
				c-26.836-12.58-39.901-33.526-42.353-61.751c-0.854-9.797-3.075-19.311-9.978-26.938c-5.902-6.524-12.201-7.501-20.102-2.978
				c-11.47,6.575-17.618,16.837-20.772,28.709c-4.521,16.997,0.716,30.631,15.069,40.872c7.842,5.596,14.628,12.148,18.12,21.211
				c4.487,11.648,2.434,14.852-10.106,18.436c-12.793,3.666-25.661,7.305-38.002,12.189c-12.208,4.844-22.168,13.027-29.351,24.03
				c-9.968,15.254-3.129,38.789,19.534,39.014c8.879,0.09,18.121-1.339,26.755-3.729c13.156-3.661,24.966-10.337,34.268-20.473
				c6.898-7.52,10.848-15.892,6.349-25.545c-4.623-9.903-14.15-14.797-26.229-13.556c-5.417,0.554-10.762,1.971-17.438,3.239
				c11.407-6.806,22.36-9.455,34.222-7.874c14.324,1.923,25.659,16.047,22.439,29.715c-1.694,7.227,0.883,11.916,5.25,16.391
				c2.772,2.842,5.799,5.835,9.393,7.451c10.002,4.494,20.369,8.302,30.125,12.196c-8.415,3.019-17.592,0.604-26.873-1.229
				c0.518,2.974,0.981,5.593,1.458,8.321c12.698-1.407,24.337-0.476,31.931,10.275c7.065,9.993,8.314,20.956,2.644,33.901
				c18.622-13.62,25.481-30.791,27.65-50.471c0.234,6.779,0.466,13.549,0.718,20.958
				C252.177,402.546,258.82,388.953,257.518,372.359z M195.776,437.985c7.94-18.011-3.293-33.55-23.309-33.442
				c-8.412,22.951-26.816,36.064-48.951,46.18c-0.054,15.739,9.527,24.916,25.098,22.132
				C170.056,469.021,186.957,457.982,195.776,437.985z M157.096,409.642c6.147-12.477,1.678-27.379-9.829-32.927
				c-2.525-1.218-4.327-1.379-6.993,0.786c-17.005,13.734-36.044,22.909-58.338,24.38c-1.535,0.101-3.633,1.165-4.444,2.388
				c-9.921,14.987-0.645,36.544,17.294,38.776c7.929,0.99,16.33-0.689,24.515-1.162c-0.021-0.529-0.034-1.071-0.044-1.604
				C136.072,434.234,150.894,422.242,157.096,409.642z"/>
			<path fill="#FFFFFF" d="M232.275,331.318c15.844,9.506,23.868,23.585,25.242,41.041c1.303,16.594-5.341,30.187-21.56,39.465
				c-0.252-7.409-0.483-14.179-0.718-20.958c-2.169,19.68-9.028,36.851-27.65,50.471c5.671-12.945,4.422-23.908-2.644-33.901
				c-7.594-10.751-19.232-11.683-31.931-10.275c-0.477-2.729-0.94-5.348-1.458-8.321c9.281,1.833,18.458,4.248,26.873,1.229
				c-9.756-3.895-20.123-7.702-30.125-12.196c-3.594-1.616-6.62-4.609-9.393-7.451c-4.367-4.475-6.944-9.164-5.25-16.391
				c3.22-13.668-8.115-27.792-22.439-29.715c-11.861-1.581-22.814,1.068-34.222,7.874c6.677-1.269,12.021-2.686,17.438-3.239
				c12.078-1.241,21.605,3.652,26.229,13.556c4.499,9.653,0.55,18.025-6.349,25.545c-9.302,10.136-21.111,16.812-34.268,20.473
				c-8.634,2.39-17.876,3.818-26.755,3.729c-22.663-0.225-29.502-23.76-19.534-39.014c7.183-11.003,17.143-19.187,29.351-24.03
				c12.341-4.885,25.209-8.523,38.002-12.189c12.54-3.584,14.594-6.787,10.106-18.436c-3.492-9.063-10.278-15.615-18.12-21.211
				c-14.354-10.241-19.59-23.875-15.069-40.872c3.154-11.872,9.303-22.134,20.772-28.709c7.9-4.524,14.199-3.546,20.102,2.978
				c6.902,7.627,9.123,17.141,9.978,26.938c2.451,28.225,15.517,49.171,42.353,61.751c24.347,11.41,35.405,32.064,39.53,57.008
				c0.104,0.644,0.219,1.273,1.64,1.835C232.363,349.54,232.319,340.779,232.275,331.318z"/>
			<path fill="#FFFFFF" d="M172.468,404.543c20.016-0.107,31.249,15.432,23.309,33.442c-8.819,19.997-25.721,31.036-47.162,34.869
				c-15.57,2.784-25.151-6.393-25.098-22.132C145.651,440.607,164.056,427.494,172.468,404.543z"/>
			<path fill="#FFFFFF" d="M147.267,376.715c11.507,5.548,15.977,20.45,9.829,32.927c-6.202,12.601-21.023,24.593-37.84,30.638
				c0.01,0.532,0.022,1.074,0.044,1.604c-8.185,0.473-16.586,2.152-24.515,1.162c-17.938-2.232-27.215-23.789-17.294-38.776
				c0.812-1.223,2.909-2.287,4.444-2.388c22.294-1.471,41.333-10.646,58.338-24.38C142.939,375.336,144.741,375.497,147.267,376.715
				z"/>
		</g>
	</g>
	<g>
		<path fill-rule="evenodd" clip-rule="evenodd" fill="#046888" d="M222.77,413.341c-0.138-6.803-0.264-13.027-0.391-19.253
			c-2.132,17.955-8.358,33.424-24.875,45.134c5.129-11.641,4.166-21.741-1.92-31.208c-6.551-10.189-16.756-11.529-27.927-10.776
			c-0.388-2.523-0.76-4.947-1.182-7.692c8.126,2.067,16.161,4.671,23.583,2.258c-8.52-3.98-17.576-7.911-26.313-12.456
			c-3.138-1.632-5.765-4.512-8.162-7.23c-3.788-4.297-5.992-8.702-4.413-15.266c2.981-12.405-6.809-25.833-19.367-28.199
			c-10.395-1.958-20.044,0.015-30.148,5.779c5.885-0.889,10.596-1.965,15.353-2.244c10.626-0.622,18.941,4.266,22.882,13.545
			c3.838,9.043,0.271,16.563-5.873,23.165c-8.293,8.913-18.744,14.537-30.348,17.338c-7.605,1.836-15.741,2.752-23.534,2.295
			c-19.91-1.163-25.639-23.041-16.702-36.616c6.439-9.783,15.278-16.88,26.064-20.802c10.895-3.963,22.244-6.759,33.518-9.58
			c11.063-2.769,12.902-5.62,9.1-16.488c-2.964-8.465-8.846-14.767-15.669-20.229c-12.489-9.998-16.921-22.725-12.755-38.125
			c2.909-10.759,8.433-19.917,18.587-25.463c6.991-3.818,12.505-2.658,17.61,3.572c5.977,7.29,7.814,16.115,8.449,25.14
			c1.828,25.995,13.051,45.76,36.474,58.429c21.255,11.496,30.717,30.919,34.054,53.971c0.084,0.591,0.174,1.182,1.415,1.75
			c0.064-8.034,0.129-16.069,0.199-24.754c13.806,9.385,20.689,22.643,21.688,38.717C243.113,393.321,237.125,405.52,222.77,413.341
			z"/>
		<path fill-rule="evenodd" clip-rule="evenodd" fill="#046888" d="M119.945,436.003c-7.194,0.085-14.584,1.271-21.543,0.031
			c-15.726-2.803-23.618-22.977-14.729-36.305c0.725-1.086,2.579-1.975,3.928-2.002c19.604-0.41,36.432-8.023,51.524-19.911
			c2.367-1.864,3.947-1.649,6.159-0.422c10.035,5.572,13.791,19.432,8.244,30.621c-5.601,11.299-18.761,21.683-33.603,26.511
			C119.933,435.02,119.939,435.512,119.945,436.003z"/>
		<path fill-rule="evenodd" clip-rule="evenodd" fill="#046888" d="M123.549,444.284c19.561-8.34,35.878-19.599,43.542-40.296
			c17.579,0.744,27.259,15.477,20.071,31.665c-7.981,17.972-22.949,27.388-41.834,30.001
			C131.628,467.552,123.318,458.729,123.549,444.284z"/>
	</g>
	<g>
		<circle fill-rule="evenodd" clip-rule="evenodd" fill="#046888" cx="427.293" cy="312.012" r="228.904"/>
		<path fill-rule="evenodd" clip-rule="evenodd" fill="#2480A5" d="M424.287,384.582c-0.832,1.426-1.484,2.996-2.523,4.25
			c-7.136,8.617-11.696,18.277-12.628,29.561c-0.333,4.041-2.49,6.887-6.096,9.074c-5.82,3.527-11.25,7.699-17.003,11.344
			c-2.717,1.721-4.07,3.762-3.59,6.949c0.72,4.773-0.969,8.348-4.349,11.934c-15.509,16.459-30.698,33.219-46.002,49.869
			c-10.858-4.037-20.936-9.547-30.431-16.154c-2.442-2.254-1.734-5.223-1.607-7.939c0.386-8.248,1.395-16.449,2.231-24.66
			c0.104-1,0.35-1.953,1.07-2.695c0.165-0.779,2.979,0.152,1.226-1.93c-0.952-1.131-1.268-2.533-1.35-3.994
			c0.396-6.805,0.573-13.627,1.566-20.373c0.791-5.375-0.088-9.777-5.193-12.852c-3.26-1.965-5.949-4.811-9.1-6.988
			c-2.986-2.063-5.029-4.725-6.243-8.162c-3.437-9.729-6.634-19.559-11.687-28.631c-0.573-1.029-0.821-2.18-0.66-3.383
			c0.018-0.539,0.066-1.072,0.144-1.605c1.235-6.191,1.208-12.389,0.121-18.588c-0.123-0.496-0.192-1.004-0.214-1.516
			c-0.406-2.93,2.056-4.314,3.366-6.348c1.52-2.361,3.978-4.061,4.788-6.895c1.313-4.436,2.245-8.865-0.056-13.279
			c-0.979-2.213-2.959-2.387-5.005-2.58c-8.79-0.83-15.867-5.283-22.474-10.717c-0.202-0.432-0.325-0.891-0.396-1.361
			c0.379-2.182,0.847-4.371-0.177-6.52c-0.271-1.09-1.058-1.75-1.973-2.303c-5.008-4.021-9.845-8.277-15.88-10.768
			c-3.447-2.906-7.003,0.867-10.482-0.152c-5.127-0.246-10.251,0.059-15.362-0.246c-2.862-0.17-5.669-0.576-6.834-3.834
			c0.489-15.1,4.166-29.613,8.855-43.809c20.047-60.671,59.071-104.794,116.578-132.593c1.031-0.499,2.173-0.771,3.264-1.148
			c0.621,1.35,1.525,2.641,1.82,4.058c2.008,9.652,7.164,16.573,16.275,20.864c5.105,2.404,5.112,8.596,7.527,13.014
			c0.659,1.208-0.557,1.682-1.535,1.957c-1.273,0.356-2.543,0.791-3.845,0.964c-5.801,0.769-10.773,2.958-14.351,7.817
			c-0.893,1.212-2.128,2.091-3.658,2.436c-0.318,0.33-0.695,0.559-1.139,0.674c-3.521-0.076-7.057-0.635-10.543,0.321
			c-0.315,0.3-0.541,0.657-0.672,1.073c0.123,1.82,1.535,1.271,2.592,1.45c1.545,0.263,3.291-0.754,4.643,0.722
			c4.411,0.246,7.531,2.884,10.757,5.529c2.274,1.863,3.034,3.259,0.386,5.383c-1.811,1.451-3.346,3.244-5.004,4.885
			c-0.391,0.336-0.84,0.538-1.351,0.606c-3.762-0.237-7.523-0.157-11.286-0.058c-0.518-0.072-0.943-0.311-1.275-0.714
			c-6.3-7.181-6.3-7.181-16.422-2.07c-0.775,1.286-2.146,1.952-3.136,3.019c-0.338,0.277-0.605,0.61-0.813,0.994
			c-0.654,3.497,0.185,7.067-0.535,10.56c-0.047,0.217-0.094,0.432-0.141,0.648c-5.111,1.553-6.911,5.055-6.037,10.172
			c0.555,3.242-0.791,5.672-3.061,7.938c-3.286,3.285-5.955,7.273-9.54,10.146c-5.401,4.33-5.684,9.414-4.129,15.426
			c0.865,3.35,1.003,6.879,1.692,10.281c0.605,2.99-1.588,3.768-3.465,4.65c-2.446,1.15-2.608-1.391-3.393-2.568
			c-2.83-4.252-4.773-9.068-8.206-12.945c-0.212-0.068-0.425-0.137-0.64-0.205c-0.42-0.17-0.854-0.285-1.302-0.346
			c-4.565-0.068-9.129-0.191-13.69,0.072c-0.221,0.061-0.442,0.121-0.663,0.182c-0.223,0.053-0.445,0.105-0.669,0.156
			c-4.185,4.15-9.189,3.465-14.298,2.518c-7.724-1.43-12.681,3.066-12.254,10.887c0.317,5.785,1.089,11.574,0.292,17.369
			c-0.25,1.818,0.752,2.822,1.972,3.701c3.079,2.219,6.216,4.357,9.328,6.529c0.205,0.053,0.411,0.107,0.618,0.16
			c0.205,0.064,0.409,0.129,0.613,0.195c1.509,0.223,3.017,0.221,4.523,0.002c0.202-0.063,0.408-0.127,0.611-0.189
			c0.206-0.053,0.414-0.105,0.621-0.158c3.538-8.277,10.171-5.299,16.802-4.652c-1.438,3.395-2.658,6.453-4.026,9.445
			c-1.461,3.197-0.715,5.135,2.9,5.67c3.945,0.584,7.876,1.322,11.842,1.695c2.604,0.246,3.462,1.398,3.234,3.871
			c-0.338,3.645-0.486,7.307-0.803,10.955c-0.253,2.934,0.821,4.654,3.823,5.42c4.347,1.111,8.655,2.416,12.883,3.91
			c1.659,0.586,3.002,0.313,4.213-0.516c12.285-8.398,26.037-7.725,39.874-6.527c0.775,0.066,1.522,0.471,2.283,0.719
			c-2.493,1.18-5.137,0.143-6.536,0.387c1.401-0.213,4.042,0.773,6.536-0.385c4.105,4.1,8.584,7.898,12.212,12.385
			c3.586,4.434,7.94,6.982,13.354,7.672c8.497,1.082,14.324,5.285,17.172,13.457c3.552,10.191,10.888,15.215,21.371,17.475
			c9.846,2.121,19.335,5.902,28.979,8.955C426.17,370.492,424.894,377.551,424.287,384.582z"/>
		<path fill-rule="evenodd" clip-rule="evenodd" fill="#2480A5" d="M529.413,333.668c-1.521-2.748-3.32-5.379-4.515-8.262
			c-4.454-10.754-10.764-20.164-19.472-27.928c-0.369-0.484-0.562-1.031-0.575-1.641c0.089-11.242,0.114-22.484-0.014-33.727
			c0.01-0.605,0.186-1.158,0.528-1.66c1.886-3.1,3.839-6.162,5.641-9.311c3.177-5.543,6.92-10.439,13.257-12.67
			c0.945-0.332,1.736-0.947,1.964-2.037c-0.158-3.666-1.279-7.391,0.702-10.918c5.482-5.043,12.125-6.83,19.384-7.148
			c4.047-0.176,7.474-1.869,10.578-4.621c3.317-2.941,7.068-5.395,10.63-8.061c8.159-1.479,16.382-0.494,24.574-0.58
			c2.869-0.031,3.362,2.117,3.419,4.436c-1.43,9.141-1.43,9.143,7.585,12.031c6.323,2.027,12.733,3.828,18.944,6.16
			c4.066,1.525,5.911,0.131,6.926-3.623c0.563-2.082,1.281-4.123,1.927-6.184c1.692-5.408,1.692-5.408,6.5-2.111
			c7.647,13.959,12.291,29.037,15.845,44.412c4.318,18.678,7.107,37.641,6.037,56.873c-2.518,45.234-16.152,86.672-43.161,123.381
			c-0.388,0.527-0.927,0.941-1.395,1.41c-5.318-9.359-10.647-18.713-15.938-28.086c-0.56-0.992-1.018-2.039-0.48-3.295
			c4.894-11.436,2.284-23.537,3.225-35.33c0.606-7.602-1.356-13.98-6.179-19.67c-0.305-0.365-0.502-0.781-0.604-1.242
			c0.267-4.842,0.242-9.684,0.03-14.525c-0.056-0.221-0.111-0.439-0.166-0.66c-0.049-0.221-0.097-0.441-0.145-0.664
			c-1.602-3.293-4.683-2.029-6.997-1.82c-4.18,0.381-6.675-1.08-8.635-4.725c-1.428-2.654-2.591-5.689-5.429-7.379
			c-0.19-0.049-0.38-0.096-0.574-0.146c-0.391-0.139-0.785-0.242-1.196-0.307c-2.43-0.1-4.852-0.1-7.274,0.002
			c-0.432,0.063-0.854,0.174-1.26,0.336c-0.209,0.064-0.416,0.129-0.625,0.193c-4.362,2.953-8.725,5.904-13.087,8.855
			c-0.408,0.377-0.889,0.59-1.442,0.639c-5.909-0.295-11.83,0.17-17.737-0.266C529.944,333.756,529.677,333.713,529.413,333.668z"/>
		<path fill-rule="evenodd" clip-rule="evenodd" fill="#2480A5" d="M624.906,198.566c-6.396-2.807-11.305-7.945-17.574-11.023
			c-6.534-3.207-12.489-7.79-19.243-10.305c-7.456-2.777-15.534-3.814-23.446-0.721c0.485,6.717-3.745,8.117-9.188,8.152
			c-3.265,5.02-6.559,10.021-9.783,15.066c-3.217,5.035-9.559,6.295-14.6,2.838c-9.091-6.236-11.842-14.541-8.482-24.983
			c0.74-2.302,2.378-1.917,3.969-1.995c6.153-0.302,12.307-0.742,18.462-0.795c3.767-0.033,5.13-1.385,5.488-5.258
			c0.504-5.449-1.32-9.242-5.702-12.225c-1.992-1.356-3.722-3.099-5.15-5.645c4.561,0.244,9.131,0.383,13.681,0.768
			c3.572,0.301,6.406-0.763,8.98-3.291c4.147-4.076,8.524-7.918,12.804-11.859c17.522,14.037,31.421,31.228,43.396,50.066
			C620.82,190.984,622.785,194.824,624.906,198.566z"/>
		<path fill-rule="evenodd" clip-rule="evenodd" fill="#2480A5" d="M556.877,122.963c-0.836,5.743-1.815,11.47-2.446,17.234
			c-0.309,2.822-1.709,3.754-4.238,3.666c-5.815-0.203-11.629-0.471-17.446-0.613c-2.208-0.054-3.323-0.916-2.255-3.023
			c5.193-10.246,0.984-19.605-2.531-29.067c-0.857-2.311-1.486-4.706-2.222-7.062C536.83,109.212,547.264,115.41,556.877,122.963z"
			/>
		<path fill-rule="evenodd" clip-rule="evenodd" fill="#2480A5" d="M406.11,85.427c-3.485,5.117-8.308,9.021-12.438,13.553
			c-2.336,2.564-3.879,4.846-2.209,8.316c1.09,2.266,0.323,3.448-2.275,3.236c-0.164-0.014-0.338-0.018-0.498,0.019
			c-7.234,1.598-13.121,0.31-17.467-6.545c-2.546-4.015-6.314-7.255-9.533-10.843C376.16,88.649,391.063,86.614,406.11,85.427z"/>
	</g>
	<ellipse fill="#EF4136" cx="275.137" cy="342.472" rx="40.241" ry="19.409"/>
	<ellipse fill="#EF4136" cx="575.126" cy="345.46" rx="40.241" ry="19.409"/>
	<g>
		<ellipse fill="#414042" cx="350.65" cy="263.154" rx="24.392" ry="54.99"/>
		<ellipse fill="#FFFFFF" cx="351.117" cy="241.02" rx="12.979" ry="22.808"/>
		<path fill="#2480A5" d="M352.119,291.197c-5.538,0-10.524-2.807-14.02-7.286c-0.078,1.012-0.122,2.045-0.122,3.095
			c0,12.597,5.812,22.807,12.979,22.807s12.979-10.21,12.979-22.807c0-0.227-0.006-0.449-0.01-0.673
			C360.674,289.376,356.576,291.197,352.119,291.197z"/>
	</g>
	<g>
		<g>
			<g>
				<path fill="#414042" d="M469.862,288.837c0.289-13.962,11.192-24.863,25.153-25.152c13.962-0.289,24.872,11.627,25.152,25.152
					c0.2,9.659,15.201,9.679,15,0c-0.46-22.193-17.959-39.692-40.152-40.152c-22.192-0.46-39.708,18.65-40.153,40.152
					C454.662,298.516,469.662,298.496,469.862,288.837L469.862,288.837z"/>
			</g>
		</g>
		<g>
			<g>
				<path fill="#414042" d="M497.516,256.185c0-5.396,0-10.792,0-16.188c0-3.225-5-3.225-5,0c0,5.396,0,10.792,0,16.188
					C492.516,259.409,497.516,259.409,497.516,256.185L497.516,256.185z"/>
			</g>
		</g>
		<g>
			<g>
				<path fill="#414042" d="M473.829,263.84c-3.233-3.142-6.466-6.282-9.699-9.423c-2.313-2.247-5.851,1.285-3.535,3.535
					c3.232,3.142,6.465,6.282,9.699,9.423C472.606,269.622,476.144,266.09,473.829,263.84L473.829,263.84z"/>
			</g>
		</g>
		<g>
			<g>
				<path fill="#414042" d="M519.229,267.766c4.313-3.141,8.628-6.281,12.941-9.422c2.579-1.878,0.088-6.22-2.523-4.318
					c-4.313,3.142-8.628,6.282-12.941,9.424C514.126,265.326,516.618,269.668,519.229,267.766L519.229,267.766z"/>
			</g>
		</g>
	</g>
	<path fill="#871719" d="M386.9,347.418c0-6.738,13.54-12.191,30.273-12.191s30.272,5.453,30.272,12.191
		c0,16.909-13.539,30.592-30.272,30.592S386.9,364.327,386.9,347.418z"/>
	<path fill="#E783B5" d="M392.11,362.21c0-4.869,11.229-8.81,25.109-8.81c13.88,0,25.11,3.94,25.11,8.81
		c0,8.916-11.23,16.129-25.11,16.129C403.339,378.339,392.11,371.126,392.11,362.21z"/>
</g>
</svg>
